<?xml version="1.0" encoding="UTF-8"?>
<!DOCTYPE svg PUBLIC "-//W3C//DTD SVG 1.1//EN" "http://www.w3.org/Graphics/SVG/1.1/DTD/svg11.dtd">
<svg xmlns="http://www.w3.org/2000/svg" version="1.1" width="263px" height="266px" style="shape-rendering:geometricPrecision; text-rendering:geometricPrecision; image-rendering:optimizeQuality; fill-rule:evenodd; clip-rule:evenodd" xmlns:xlink="http://www.w3.org/1999/xlink">
<g><path style="opacity:1" fill="#7c7e7a" d="M 105.5,-0.5 C 117.167,-0.5 128.833,-0.5 140.5,-0.5C 146.895,0.690913 153.228,2.52425 159.5,5C 161.378,6.5429 162.878,8.37623 164,10.5C 164.499,14.4862 164.666,18.4862 164.5,22.5C 162.283,21.6314 159.95,21.298 157.5,21.5C 159.624,11.6222 155.624,6.95552 145.5,7.5C 128.493,4.7378 111.493,4.90447 94.5,8C 92.4127,8.79217 90.5793,9.95884 89,11.5C 88.5017,14.8168 88.335,18.1501 88.5,21.5C 86.0971,21.448 83.7638,21.7814 81.5,22.5C 81.3345,18.4862 81.5012,14.4862 82,10.5C 83.1217,8.37623 84.6217,6.5429 86.5,5C 92.7204,2.38832 99.0537,0.554988 105.5,-0.5 Z"/></g>
<g><path style="opacity:1" fill="#d8dad5" d="M 145.5,7.5 C 141.826,8.21865 138.493,9.55198 135.5,11.5C 123.464,11.2235 111.464,11.7235 99.5,13C 97.8988,13.2734 96.3988,13.7734 95,14.5C 94.5034,16.8098 94.3367,19.1432 94.5,21.5C 92.5,21.5 90.5,21.5 88.5,21.5C 88.335,18.1501 88.5017,14.8168 89,11.5C 90.5793,9.95884 92.4127,8.79217 94.5,8C 111.493,4.90447 128.493,4.7378 145.5,7.5 Z"/></g>
<g><path style="opacity:1" fill="#c0c2bd" d="M 145.5,7.5 C 155.624,6.95552 159.624,11.6222 157.5,21.5C 155.167,21.5 152.833,21.5 150.5,21.5C 150.5,18.8333 150.5,16.1667 150.5,13.5C 145.518,12.9466 140.518,12.6133 135.5,12.5C 135.5,12.1667 135.5,11.8333 135.5,11.5C 138.493,9.55198 141.826,8.21865 145.5,7.5 Z"/></g>
<g><path style="opacity:1" fill="#a9aca7" d="M 135.5,11.5 C 135.5,11.8333 135.5,12.1667 135.5,12.5C 131.033,12.1326 126.7,12.6326 122.5,14C 123.833,14.6667 123.833,15.3333 122.5,16C 128.837,16.8368 128.503,17.5034 121.5,18C 130.542,18.9332 138.875,19.7666 146.5,20.5C 129.09,20.1813 111.756,20.5146 94.5,21.5C 94.3367,19.1432 94.5034,16.8098 95,14.5C 96.3988,13.7734 97.8988,13.2734 99.5,13C 111.464,11.7235 123.464,11.2235 135.5,11.5 Z"/></g>
<g><path style="opacity:1" fill="#8e918c" d="M 135.5,12.5 C 140.518,12.6133 145.518,12.9466 150.5,13.5C 150.5,16.1667 150.5,18.8333 150.5,21.5C 148.901,21.7678 147.568,21.4345 146.5,20.5C 138.875,19.7666 130.542,18.9332 121.5,18C 128.503,17.5034 128.837,16.8368 122.5,16C 123.833,15.3333 123.833,14.6667 122.5,14C 126.7,12.6326 131.033,12.1326 135.5,12.5 Z"/></g>
<g><path style="opacity:1" fill="#393d3b" d="M 150.5,21.5 C 152.833,21.5 155.167,21.5 157.5,21.5C 159.95,21.298 162.283,21.6314 164.5,22.5C 172.373,22.968 180.04,23.968 187.5,25.5C 184.903,25.7208 184.903,26.2208 187.5,27C 186.167,27.3333 184.833,27.6667 183.5,28C 185.392,28.9734 187.392,29.6401 189.5,30C 186.635,30.1829 183.969,30.6829 181.5,31.5C 151.23,28.9176 120.897,27.9176 90.5,28.5C 98.1156,27.283 107.782,26.4497 119.5,26C 116.854,25.5026 114.187,25.3359 111.5,25.5C 111.5,24.5 111.5,23.5 111.5,22.5C 124.689,22.2233 137.522,22.5567 150,23.5C 150.464,22.9056 150.631,22.2389 150.5,21.5 Z"/></g>
<g><path style="opacity:1" fill="#cccecc" d="M 90.5,28.5 C 120.897,27.9176 151.23,28.9176 181.5,31.5C 189.861,32.3425 197.861,34.5092 205.5,38C 207.79,39.7772 209.457,41.9438 210.5,44.5C 210.5,59.1667 210.5,73.8333 210.5,88.5C 208.5,88.5 206.5,88.5 204.5,88.5C 204.829,73.9903 204.496,59.6569 203.5,45.5C 203.489,43.9826 202.823,42.8159 201.5,42C 199.167,41 196.833,40 194.5,39C 148.218,32.0367 101.885,31.7033 55.5,38C 50.2618,38.7029 45.7618,40.8696 42,44.5C 41.5002,55.495 41.3335,66.495 41.5,77.5C 40.8177,74.5046 39.8177,71.5046 38.5,68.5C 37.914,68.2907 37.414,67.9574 37,67.5C 36.6667,68.8333 36.3333,70.1667 36,71.5C 35.5002,62.5062 35.3336,53.5062 35.5,44.5C 35.7512,42.8297 36.4178,41.3297 37.5,40C 44.1308,35.5053 51.4641,32.8386 59.5,32C 69.9686,30.6884 80.302,29.5217 90.5,28.5 Z"/></g>
<g><path style="opacity:1" fill="#525350" d="M 146.5,20.5 C 147.568,21.4345 148.901,21.7678 150.5,21.5C 150.631,22.2389 150.464,22.9056 150,23.5C 137.522,22.5567 124.689,22.2233 111.5,22.5C 111.5,23.5 111.5,24.5 111.5,25.5C 114.187,25.3359 116.854,25.5026 119.5,26C 107.782,26.4497 98.1156,27.283 90.5,28.5C 80.302,29.5217 69.9686,30.6884 59.5,32C 51.4641,32.8386 44.1308,35.5053 37.5,40C 36.4178,41.3297 35.7512,42.8297 35.5,44.5C 34.5025,67.6607 34.1691,90.994 34.5,114.5C 34.6018,148.52 34.4352,182.52 34,216.5C 36.8739,217.532 38.3739,219.532 38.5,222.5C 41.4261,223.461 44.4261,224.127 47.5,224.5C 49.7612,226.255 52.4278,227.422 55.5,228C 59.8206,228.499 64.1539,228.666 68.5,228.5C 75.5036,228.773 82.5036,229.106 89.5,229.5C 89.5,230.833 89.5,232.167 89.5,233.5C 87.4534,233.489 85.4534,233.156 83.5,232.5C 82.3279,232.919 81.3279,233.585 80.5,234.5C 76.0358,233.201 71.7025,233.201 67.5,234.5C 66.1667,234.5 64.8333,234.5 63.5,234.5C 52.8649,233.298 42.8649,229.964 33.5,224.5C 32.0664,221.953 30.3998,219.619 28.5,217.5C 28.3333,158.832 28.5,100.166 29,41.5C 31.1407,35.3593 35.3074,31.1926 41.5,29C 54.5166,24.9261 67.8499,22.7594 81.5,22.5C 83.7638,21.7814 86.0971,21.448 88.5,21.5C 90.5,21.5 92.5,21.5 94.5,21.5C 111.756,20.5146 129.09,20.1813 146.5,20.5 Z"/></g>
<g><path style="opacity:1" fill="#7c7e7a" d="M 203.5,45.5 C 203.5,47.5 203.5,49.5 203.5,51.5C 189.199,55.5802 174.533,58.0802 159.5,59C 130.142,59.351 100.808,59.5177 71.5,59.5C 82.1667,60.5 92.8333,61.5 103.5,62.5C 111.394,64.8079 119.394,66.4746 127.5,67.5C 127.5,68.8333 127.5,70.1667 127.5,71.5C 128.552,71.3505 129.552,71.5172 130.5,72C 131.333,74.1667 132.833,75.6667 135,76.5C 140.407,75.5268 145.907,75.1934 151.5,75.5C 151.34,77.1992 151.506,78.8659 152,80.5C 153.647,79.86 155.481,79.86 157.5,80.5C 172.528,74.9085 187.861,70.2418 203.5,66.5C 203.5,73.5 203.5,80.5 203.5,87.5C 188.657,87.1707 173.99,87.504 159.5,88.5C 143.325,88.1703 127.325,88.5036 111.5,89.5C 106.097,89.87 101.431,91.87 97.5,95.5C 96.475,95.1034 96.3083,94.4368 97,93.5C 99,92.1667 101,90.8333 103,89.5C 103.498,86.5184 103.665,83.5184 103.5,80.5C 101.208,80.2436 99.0408,80.5769 97,81.5C 93.7304,80.1155 90.8971,78.1155 88.5,75.5C 87.0039,79.2766 85.3373,79.2766 83.5,75.5C 82.5713,74.3112 82.238,72.9778 82.5,71.5C 81.5,71.5 80.5,71.5 79.5,71.5C 79.5,70.5 79.5,69.5 79.5,68.5C 74.1667,68.5 68.8333,68.5 63.5,68.5C 63.5,67.5 63.5,66.5 63.5,65.5C 57.4591,65.001 51.6257,64.6677 46,64.5C 45.6667,65.1667 45.3333,65.8333 45,66.5C 44.5814,65.3279 43.9147,64.3279 43,63.5C 42.8304,74.3412 42.3304,85.0079 41.5,95.5C 41.5,89.5 41.5,83.5 41.5,77.5C 41.3335,66.495 41.5002,55.495 42,44.5C 45.7618,40.8696 50.2618,38.7029 55.5,38C 101.885,31.7033 148.218,32.0367 194.5,39C 196.833,40 199.167,41 201.5,42C 202.823,42.8159 203.489,43.9826 203.5,45.5 Z"/></g>
<g><path style="opacity:1" fill="#858783" d="M 203.5,45.5 C 204.496,59.6569 204.829,73.9903 204.5,88.5C 189.5,88.5 174.5,88.5 159.5,88.5C 173.99,87.504 188.657,87.1707 203.5,87.5C 203.5,80.5 203.5,73.5 203.5,66.5C 187.861,70.2418 172.528,74.9085 157.5,80.5C 155.481,79.86 153.647,79.86 152,80.5C 151.506,78.8659 151.34,77.1992 151.5,75.5C 145.907,75.1934 140.407,75.5268 135,76.5C 132.833,75.6667 131.333,74.1667 130.5,72C 129.552,71.5172 128.552,71.3505 127.5,71.5C 127.5,70.1667 127.5,68.8333 127.5,67.5C 119.394,66.4746 111.394,64.8079 103.5,62.5C 92.8333,61.5 82.1667,60.5 71.5,59.5C 100.808,59.5177 130.142,59.351 159.5,59C 174.533,58.0802 189.199,55.5802 203.5,51.5C 203.5,49.5 203.5,47.5 203.5,45.5 Z"/></g>
<g><path style="opacity:1" fill="#737570" d="M 97.5,95.5 C 94.4642,98.2426 92.4642,101.576 91.5,105.5C 91.1667,105.5 90.8333,105.5 90.5,105.5C 86.6286,105.185 82.9619,105.518 79.5,106.5C 74.1563,106.334 68.8229,106.501 63.5,107C 57.7189,107.337 52.3855,108.504 47.5,110.5C 46.0813,111.451 44.4147,111.784 42.5,111.5C 42.1667,111.5 41.8333,111.5 41.5,111.5C 41.5,106.167 41.5,100.833 41.5,95.5C 42.3304,85.0079 42.8304,74.3412 43,63.5C 43.9147,64.3279 44.5814,65.3279 45,66.5C 45.3333,65.8333 45.6667,65.1667 46,64.5C 51.6257,64.6677 57.4591,65.001 63.5,65.5C 63.5,66.5 63.5,67.5 63.5,68.5C 68.8333,68.5 74.1667,68.5 79.5,68.5C 79.5,69.5 79.5,70.5 79.5,71.5C 80.5,71.5 81.5,71.5 82.5,71.5C 82.238,72.9778 82.5713,74.3112 83.5,75.5C 85.3373,79.2766 87.0039,79.2766 88.5,75.5C 90.8971,78.1155 93.7304,80.1155 97,81.5C 99.0408,80.5769 101.208,80.2436 103.5,80.5C 103.665,83.5184 103.498,86.5184 103,89.5C 101,90.8333 99,92.1667 97,93.5C 96.3083,94.4368 96.475,95.1034 97.5,95.5 Z"/></g>
<g><path style="opacity:1" fill="#656868" d="M 210.5,44.5 C 211.496,59.324 211.829,74.324 211.5,89.5C 178.167,89.5 144.833,89.5 111.5,89.5C 127.325,88.5036 143.325,88.1703 159.5,88.5C 174.5,88.5 189.5,88.5 204.5,88.5C 206.5,88.5 208.5,88.5 210.5,88.5C 210.5,73.8333 210.5,59.1667 210.5,44.5 Z"/></g>
<g><path style="opacity:1" fill="#2b2f30" d="M 187.5,25.5 C 191.964,25.5976 196.297,26.4309 200.5,28C 208.163,30.0083 213.663,34.5083 217,41.5C 217.5,57.4965 217.667,73.4965 217.5,89.5C 224.175,89.3337 230.842,89.5004 237.5,90C 242.763,91.1249 246.763,93.9582 249.5,98.5C 245.79,98.1257 242.79,96.459 240.5,93.5C 227.673,92.175 215.006,92.175 202.5,93.5C 201.833,93.5 201.167,93.5 200.5,93.5C 170.165,93.3334 139.832,93.5 109.5,94C 101.907,96.0916 97.2404,100.925 95.5,108.5C 94.5025,131.327 94.1692,154.327 94.5,177.5C 94.5,193.833 94.5,210.167 94.5,226.5C 92.8351,189.678 91.8351,152.678 91.5,115.5C 91.2224,112.71 91.8891,110.21 93.5,108C 93.3613,106.699 92.6946,105.866 91.5,105.5C 92.4642,101.576 94.4642,98.2426 97.5,95.5C 101.431,91.87 106.097,89.87 111.5,89.5C 144.833,89.5 178.167,89.5 211.5,89.5C 211.829,74.324 211.496,59.324 210.5,44.5C 209.457,41.9438 207.79,39.7772 205.5,38C 197.861,34.5092 189.861,32.3425 181.5,31.5C 183.969,30.6829 186.635,30.1829 189.5,30C 187.392,29.6401 185.392,28.9734 183.5,28C 184.833,27.6667 186.167,27.3333 187.5,27C 184.903,26.2208 184.903,25.7208 187.5,25.5 Z"/></g>
<g><path style="opacity:1" fill="#2e3119" d="M 202.5,93.5 C 215.006,92.175 227.673,92.175 240.5,93.5C 242.79,96.459 245.79,98.1257 249.5,98.5C 251.097,100.756 250.431,102.09 247.5,102.5C 247.5,101.833 247.167,101.5 246.5,101.5C 244.06,97.2299 240.393,94.7299 235.5,94C 224.505,93.5002 213.505,93.3335 202.5,93.5 Z"/></g>
<g><path style="opacity:1" fill="#cb2b3e" d="M 200.5,93.5 C 201.167,93.5 201.833,93.5 202.5,93.5C 213.505,93.3335 224.505,93.5002 235.5,94C 240.393,94.7299 244.06,97.2299 246.5,101.5C 246.167,102.833 245.833,104.167 245.5,105.5C 244.833,105.5 244.167,105.5 243.5,105.5C 243.5,103.5 242.5,102.5 240.5,102.5C 239.833,102.5 239.5,102.167 239.5,101.5C 239.5,100.167 239.5,98.8333 239.5,97.5C 225.5,97.5 211.5,97.5 197.5,97.5C 198.853,96.4739 199.853,95.1405 200.5,93.5 Z"/></g>
<g><path style="opacity:1" fill="#c1c3c1" d="M 200.5,93.5 C 199.853,95.1405 198.853,96.4739 197.5,97.5C 197.167,97.5 196.833,97.5 196.5,97.5C 167.831,97.3334 139.165,97.5 110.5,98C 104.693,99.8072 100.859,103.64 99,109.5C 98.5001,126.163 98.3334,142.83 98.5,159.5C 97.6701,150.342 97.1701,141.009 97,131.5C 96.6667,135.5 96.3333,139.5 96,143.5C 95.5001,131.838 95.3335,120.171 95.5,108.5C 97.2404,100.925 101.907,96.0916 109.5,94C 139.832,93.5 170.165,93.3334 200.5,93.5 Z"/></g>
<g><path style="opacity:1" fill="#a4a4a0" d="M 35.5,44.5 C 35.3336,53.5062 35.5002,62.5062 36,71.5C 36.3333,70.1667 36.6667,68.8333 37,67.5C 37.414,67.9574 37.914,68.2907 38.5,68.5C 39.8177,71.5046 40.8177,74.5046 41.5,77.5C 41.5,83.5 41.5,89.5 41.5,95.5C 41.5,100.833 41.5,106.167 41.5,111.5C 41.3957,113.973 40.3957,114.639 38.5,113.5C 37.4822,114.193 36.4822,114.859 35.5,115.5C 35.5,114.833 35.1667,114.5 34.5,114.5C 34.1691,90.994 34.5025,67.6607 35.5,44.5 Z"/></g>
<g><path style="opacity:1" fill="#cb2b3e" d="M 196.5,97.5 C 196.833,97.5 197.167,97.5 197.5,97.5C 211.5,97.5 225.5,97.5 239.5,97.5C 239.5,98.8333 239.5,100.167 239.5,101.5C 237.586,100.815 235.586,100.315 233.5,100C 222.839,99.5002 212.172,99.3335 201.5,99.5C 199.95,98.2801 198.284,98.2801 196.5,99.5C 196.5,98.8333 196.5,98.1667 196.5,97.5 Z"/></g>
<g><path style="opacity:1" fill="#cb2b3e" d="M 79.5,106.5 C 69.0468,108.467 58.3801,109.801 47.5,110.5C 52.3855,108.504 57.7189,107.337 63.5,107C 68.8229,106.501 74.1563,106.334 79.5,106.5 Z"/></g>
<g><path style="opacity:1" fill="#404241" d="M 243.5,105.5 C 244.167,105.5 244.833,105.5 245.5,105.5C 245.5,106.833 245.5,108.167 245.5,109.5C 237.875,116.458 230.542,123.791 223.5,131.5C 228.492,132.332 233.492,132.999 238.5,133.5C 240.304,137.263 240.804,141.263 240,145.5C 236.922,149.085 233.422,152.085 229.5,154.5C 228.697,153.577 228.53,152.577 229,151.5C 232.113,148.375 235.28,145.375 238.5,142.5C 237.691,140.929 237.357,139.262 237.5,137.5C 236.5,137.5 235.5,137.5 234.5,137.5C 227.679,136.671 220.679,136.171 213.5,136C 223.08,127.586 232.08,118.752 240.5,109.5C 241.5,108.167 242.5,106.833 243.5,105.5 Z"/></g>
<g><path style="opacity:1" fill="#adafab" d="M 246.5,101.5 C 247.167,101.5 247.5,101.833 247.5,102.5C 248.32,104.14 249.153,105.807 250,107.5C 250.5,115.827 250.666,124.16 250.5,132.5C 249.672,138.653 249.172,144.987 249,151.5C 248.667,147.167 248.333,142.833 248,138.5C 247.824,142.688 247.324,146.688 246.5,150.5C 246.829,136.656 246.496,122.99 245.5,109.5C 245.5,108.167 245.5,106.833 245.5,105.5C 245.833,104.167 246.167,102.833 246.5,101.5 Z"/></g>
<g><path style="opacity:1" fill="#cb2b3e" d="M 89.5,116.5 C 85.9581,116.187 82.6248,116.521 79.5,117.5C 73.9738,117.179 68.6405,117.512 63.5,118.5C 59.1318,118.37 54.7985,118.703 50.5,119.5C 48.0182,119.89 46.6848,118.89 46.5,116.5C 60.5869,113.113 74.9203,111.113 89.5,110.5C 89.5,112.5 89.5,114.5 89.5,116.5 Z"/></g>
<g><path style="opacity:1" fill="#cb2b3e" d="M 79.5,117.5 C 82.5,117.5 85.5,117.5 88.5,117.5C 88.6667,153.835 88.5,190.168 88,226.5C 79.959,226.623 71.7923,226.623 63.5,226.5C 62.2347,225.521 60.9014,224.521 59.5,223.5C 60.8333,222.833 62.1667,222.167 63.5,221.5C 62.7542,220.264 62.4208,218.93 62.5,217.5C 59.7531,217.813 57.0865,217.48 54.5,216.5C 54.2144,189.54 54.5477,162.54 55.5,135.5C 54.5,135.5 53.5,135.5 52.5,135.5C 52.5,133.167 52.5,130.833 52.5,128.5C 55.8788,128.112 59.2121,127.445 62.5,126.5C 59.8929,125.682 57.2263,125.182 54.5,125C 56.7837,121.936 59.2837,121.769 62,124.5C 62.6077,122.846 63.1077,121.179 63.5,119.5C 63.5,119.167 63.5,118.833 63.5,118.5C 68.6405,117.512 73.9738,117.179 79.5,117.5 Z"/></g>
<g><path style="opacity:1" fill="#6a6c68" d="M 196.5,97.5 C 196.5,98.1667 196.5,98.8333 196.5,99.5C 194.566,100.11 192.899,101.11 191.5,102.5C 190.198,101.643 188.865,101.143 187.5,101C 186.833,101.667 186.167,102.333 185.5,103C 187.405,103.826 187.739,104.993 186.5,106.5C 185.522,106.023 184.689,105.357 184,104.5C 183.5,105.667 182.667,106.5 181.5,107C 184.149,109.437 183.483,110.77 179.5,111C 180.993,112.156 180.826,112.99 179,113.5C 178.055,113.095 177.388,112.428 177,111.5C 170.296,119.038 163.13,126.038 155.5,132.5C 152.587,131.442 149.754,130.109 147,128.5C 144.373,132.595 140.539,134.595 135.5,134.5C 127.528,135.498 119.528,135.831 111.5,135.5C 111.5,136.5 111.5,137.5 111.5,138.5C 109.5,138.5 107.5,138.5 105.5,138.5C 105.785,140.288 105.452,141.955 104.5,143.5C 103.749,142.624 103.249,141.624 103,140.5C 102.751,141.624 102.251,142.624 101.5,143.5C 100.702,141.922 100.202,140.256 100,138.5C 99.5001,151.162 99.3334,163.829 99.5,176.5C 99.5,177.167 99.1667,177.5 98.5,177.5C 98.5,171.5 98.5,165.5 98.5,159.5C 98.3334,142.83 98.5001,126.163 99,109.5C 100.859,103.64 104.693,99.8072 110.5,98C 139.165,97.5 167.831,97.3334 196.5,97.5 Z"/></g>
<g><path style="opacity:1" fill="#646562" d="M 245.5,109.5 C 246.496,122.99 246.829,136.656 246.5,150.5C 246.333,169.503 246.5,188.503 247,207.5C 247.333,206.167 247.667,204.833 248,203.5C 248.002,206.051 248.836,208.051 250.5,209.5C 250.666,217.507 250.5,225.507 250,233.5C 249.76,235.852 248.927,237.852 247.5,239.5C 246.282,238.839 244.949,238.172 243.5,237.5C 244.098,236.205 244.598,234.872 245,233.5C 245.667,199.5 245.667,165.5 245,131.5C 243.103,133.016 240.936,133.683 238.5,133.5C 233.492,132.999 228.492,132.332 223.5,131.5C 230.542,123.791 237.875,116.458 245.5,109.5 Z"/></g>
<g><path style="opacity:1" fill="#cb2b3e" d="M 201.5,99.5 C 212.172,99.3335 222.839,99.5002 233.5,100C 235.586,100.315 237.586,100.815 239.5,101.5C 239.5,102.167 239.833,102.5 240.5,102.5C 228.495,114.504 216.162,126.171 203.5,137.5C 200.696,135.09 197.362,133.423 193.5,132.5C 191.86,134.64 189.693,135.64 187,135.5C 181.165,134.278 175.332,134.278 169.5,135.5C 169.5,134.5 169.5,133.5 169.5,132.5C 179.803,121.196 190.47,110.196 201.5,99.5 Z"/></g>
<g><path style="opacity:1" fill="#cb2b3e" d="M 240.5,109.5 C 232.08,118.752 223.08,127.586 213.5,136C 220.679,136.171 227.679,136.671 234.5,137.5C 226.472,137.831 218.472,137.498 210.5,136.5C 220.52,127.478 230.52,118.478 240.5,109.5 Z"/></g>
<g><path style="opacity:1" fill="#cb2b3e" d="M 63.5,119.5 C 63.1077,121.179 62.6077,122.846 62,124.5C 59.2837,121.769 56.7837,121.936 54.5,125C 57.2263,125.182 59.8929,125.682 62.5,126.5C 59.2121,127.445 55.8788,128.112 52.5,128.5C 52.5,130.833 52.5,133.167 52.5,135.5C 53.5,135.5 54.5,135.5 55.5,135.5C 54.5477,162.54 54.2144,189.54 54.5,216.5C 57.0865,217.48 59.7531,217.813 62.5,217.5C 62.4208,218.93 62.7542,220.264 63.5,221.5C 62.1667,222.167 60.8333,222.833 59.5,223.5C 60.9014,224.521 62.2347,225.521 63.5,226.5C 58.1494,225.963 52.8161,225.296 47.5,224.5C 45.5073,222.837 43.1739,221.67 40.5,221C 39.7476,220.329 39.4142,219.496 39.5,218.5C 39.2671,216.938 38.6005,215.605 37.5,214.5C 37.6741,212.139 38.0074,209.806 38.5,207.5C 39.5,207.5 40.5,207.5 41.5,207.5C 41.5659,179.464 42.2326,151.464 43.5,123.5C 47.5532,122.65 51.5532,121.484 55.5,120C 58.146,119.503 60.8127,119.336 63.5,119.5 Z"/></g>
<g><path style="opacity:1" fill="#cb2b3e" d="M 79.5,117.5 C 82.6248,116.521 85.9581,116.187 89.5,116.5C 89.5,154.167 89.5,191.833 89.5,229.5C 82.5036,229.106 75.5036,228.773 68.5,228.5C 66.8333,227.833 65.1667,227.167 63.5,226.5C 71.7923,226.623 79.959,226.623 88,226.5C 88.5,190.168 88.6667,153.835 88.5,117.5C 85.5,117.5 82.5,117.5 79.5,117.5 Z"/></g>
<g><path style="opacity:1" fill="#cb2b3e" d="M 41.5,111.5 C 41.8333,111.5 42.1667,111.5 42.5,111.5C 42.3259,113.861 41.9926,116.194 41.5,118.5C 40.713,120.104 39.3797,120.771 37.5,120.5C 36.6954,130.812 36.362,141.146 36.5,151.5C 36.1667,151.5 35.8333,151.5 35.5,151.5C 35.5,139.5 35.5,127.5 35.5,115.5C 36.4822,114.859 37.4822,114.193 38.5,113.5C 40.3957,114.639 41.3957,113.973 41.5,111.5 Z"/></g>
<g><path style="opacity:1" fill="#45423e" d="M 191.5,102.5 C 188.209,107.127 184.542,111.46 180.5,115.5C 168.972,125.861 158.305,137.028 148.5,149C 148.785,150.89 149.785,152.223 151.5,153C 154.817,153.498 158.15,153.665 161.5,153.5C 163.969,154.317 166.635,154.817 169.5,155C 168.552,155.483 167.552,155.649 166.5,155.5C 166.67,156.822 166.337,157.989 165.5,159C 162.23,161.954 158.73,164.454 155,166.5C 154.51,167.793 154.343,169.127 154.5,170.5C 152.901,170.768 151.568,170.434 150.5,169.5C 153.963,165.536 157.63,161.702 161.5,158C 160.207,157.51 158.873,157.343 157.5,157.5C 157.5,156.5 157.5,155.5 157.5,154.5C 156.167,154.5 154.833,154.5 153.5,154.5C 153.719,155.675 153.386,156.675 152.5,157.5C 150.47,156.828 148.47,156.162 146.5,155.5C 144.221,153.277 143.388,150.611 144,147.5C 146.224,141.943 149.891,137.61 155,134.5C 155.464,133.906 155.631,133.239 155.5,132.5C 163.13,126.038 170.296,119.038 177,111.5C 177.388,112.428 178.055,113.095 179,113.5C 180.826,112.99 180.993,112.156 179.5,111C 183.483,110.77 184.149,109.437 181.5,107C 182.667,106.5 183.5,105.667 184,104.5C 184.689,105.357 185.522,106.023 186.5,106.5C 187.739,104.993 187.405,103.826 185.5,103C 186.167,102.333 186.833,101.667 187.5,101C 188.865,101.143 190.198,101.643 191.5,102.5 Z"/></g>
<g><path style="opacity:1" fill="#cb2b3e" d="M 90.5,105.5 C 90.5,146.833 90.5,188.167 90.5,229.5C 90.1667,229.5 89.8333,229.5 89.5,229.5C 89.5,191.833 89.5,154.167 89.5,116.5C 89.5,114.5 89.5,112.5 89.5,110.5C 74.9203,111.113 60.5869,113.113 46.5,116.5C 44.9505,117.441 43.2838,118.107 41.5,118.5C 41.9926,116.194 42.3259,113.861 42.5,111.5C 44.4147,111.784 46.0813,111.451 47.5,110.5C 58.3801,109.801 69.0468,108.467 79.5,106.5C 82.9619,105.518 86.6286,105.185 90.5,105.5 Z"/></g>
<g><path style="opacity:1" fill="#cb2b3e" d="M 201.5,99.5 C 190.47,110.196 179.803,121.196 169.5,132.5C 163.854,137.812 158.187,143.145 152.5,148.5C 162.144,149.498 171.81,149.832 181.5,149.5C 179.909,152.431 177.909,155.098 175.5,157.5C 161.546,169.787 148.212,182.787 135.5,196.5C 141.5,197.167 147.5,197.833 153.5,198.5C 144.343,208.493 135.343,218.659 126.5,229C 128.635,229.635 130.635,229.301 132.5,228C 155.167,215.333 177.833,202.667 200.5,190C 191.5,189.667 182.5,189.333 173.5,189C 177.906,185.149 182.239,181.316 186.5,177.5C 201.833,166.157 216.833,154.324 231.5,142C 220.992,141.83 210.659,141.33 200.5,140.5C 201.833,139.833 202.833,138.833 203.5,137.5C 216.162,126.171 228.495,114.504 240.5,102.5C 242.5,102.5 243.5,103.5 243.5,105.5C 242.5,106.833 241.5,108.167 240.5,109.5C 230.52,118.478 220.52,127.478 210.5,136.5C 218.472,137.498 226.472,137.831 234.5,137.5C 235.909,139.305 236.409,141.305 236,143.5C 225.31,152.031 214.81,160.698 204.5,169.5C 198.19,173.815 192.19,178.482 186.5,183.5C 185.244,183.461 184.244,183.961 183.5,185C 190.5,185.333 197.5,185.667 204.5,186C 205.576,187.726 205.743,189.559 205,191.5C 195.354,197.067 185.854,202.734 176.5,208.5C 173.008,209.41 170.008,211.076 167.5,213.5C 152.675,220.743 138.341,228.743 124.5,237.5C 118.409,237.714 116.909,235.047 120,229.5C 127.374,221.629 134.541,213.629 141.5,205.5C 143.296,204.207 144.963,202.707 146.5,201C 141.845,200.501 137.179,200.334 132.5,200.5C 131.489,198.598 131.322,196.598 132,194.5C 134.677,191.99 137.177,189.323 139.5,186.5C 151.177,175.833 161.844,164.833 171.5,153.5C 165.02,152.348 158.354,151.515 151.5,151C 150.941,150.275 150.608,149.442 150.5,148.5C 160.492,137.507 170.492,126.507 180.5,115.5C 184.542,111.46 188.209,107.127 191.5,102.5C 192.899,101.11 194.566,100.11 196.5,99.5C 198.284,98.2801 199.95,98.2801 201.5,99.5 Z"/></g>
<g><path style="opacity:1" fill="#cb2b3e" d="M 90.5,105.5 C 90.8333,105.5 91.1667,105.5 91.5,105.5C 92.6946,105.866 93.3613,106.699 93.5,108C 91.8891,110.21 91.2224,112.71 91.5,115.5C 91.8318,153.67 91.4985,191.67 90.5,229.5C 90.5,188.167 90.5,146.833 90.5,105.5 Z"/></g>
<g><path style="opacity:1" fill="#929792" d="M 95.5,108.5 C 95.3335,120.171 95.5001,131.838 96,143.5C 96.3333,139.5 96.6667,135.5 97,131.5C 97.1701,141.009 97.6701,150.342 98.5,159.5C 98.5,165.5 98.5,171.5 98.5,177.5C 98.5,178.167 98.5,178.833 98.5,179.5C 96.8007,179.473 95.4674,178.806 94.5,177.5C 94.1692,154.327 94.5025,131.327 95.5,108.5 Z"/></g>
<g><path style="opacity:1" fill="#cb2b3e" d="M 46.5,116.5 C 46.6848,118.89 48.0182,119.89 50.5,119.5C 54.7985,118.703 59.1318,118.37 63.5,118.5C 63.5,118.833 63.5,119.167 63.5,119.5C 60.8127,119.336 58.146,119.503 55.5,120C 51.5532,121.484 47.5532,122.65 43.5,123.5C 42.2326,151.464 41.5659,179.464 41.5,207.5C 40.5,207.5 39.5,207.5 38.5,207.5C 38.0074,209.806 37.6741,212.139 37.5,214.5C 36.5027,193.673 36.1694,172.673 36.5,151.5C 36.362,141.146 36.6954,130.812 37.5,120.5C 39.3797,120.771 40.713,120.104 41.5,118.5C 43.2838,118.107 44.9505,117.441 46.5,116.5 Z"/></g>
<g><path style="opacity:1" fill="#cb2b3e" d="M 35.5,151.5 C 35.8333,151.5 36.1667,151.5 36.5,151.5C 36.1694,172.673 36.5027,193.673 37.5,214.5C 38.6005,215.605 39.2671,216.938 39.5,218.5C 38.2058,217.71 37.0391,216.71 36,215.5C 35.5,194.169 35.3334,172.836 35.5,151.5 Z"/></g>
<g><path style="opacity:1" fill="#cb2b3e" d="M 34.5,114.5 C 35.1667,114.5 35.5,114.833 35.5,115.5C 35.5,127.5 35.5,139.5 35.5,151.5C 35.3334,172.836 35.5,194.169 36,215.5C 37.0391,216.71 38.2058,217.71 39.5,218.5C 39.4142,219.496 39.7476,220.329 40.5,221C 43.1739,221.67 45.5073,222.837 47.5,224.5C 44.4261,224.127 41.4261,223.461 38.5,222.5C 38.3739,219.532 36.8739,217.532 34,216.5C 34.4352,182.52 34.6018,148.52 34.5,114.5 Z"/></g>
<g><path style="opacity:1" fill="#e6e6e6" d="M 28.5,217.5 C 30.3998,219.619 32.0664,221.953 33.5,224.5C 32.3157,225.688 32.3157,226.855 33.5,228C 31.9861,229.439 31.6527,230.939 32.5,232.5C 37.267,235.591 42.1003,238.591 47,241.5C 47.3333,241.167 47.6667,240.833 48,240.5C 50.7857,242.142 53.619,243.642 56.5,245C 64.5,246.333 72.5,247.667 80.5,249C 83.553,250.522 86.2196,252.522 88.5,255C 96.4211,256.421 104.088,258.254 111.5,260.5C 106.464,260.412 101.464,259.912 96.5,259C 90.9134,257.525 85.58,255.358 80.5,252.5C 79.8333,253.167 79.1667,253.833 78.5,254.5C 69.9465,252.222 61.2798,250.389 52.5,249C 45.1434,245.769 37.4767,243.102 29.5,241C 28.7433,239.488 27.7433,238.154 26.5,237C 24.0988,236.205 21.9321,235.038 20,233.5C 19.4784,230.504 17.9784,228.171 15.5,226.5C 16.8333,224.5 16.8333,222.5 15.5,220.5C 18.1155,218.103 20.1155,215.27 21.5,212C 23.5873,211.208 25.4207,210.041 27,208.5C 27.1805,211.695 27.6805,214.695 28.5,217.5 Z"/></g>
<g><path style="opacity:1" fill="#cb2b3e" d="M 47.5,224.5 C 52.8161,225.296 58.1494,225.963 63.5,226.5C 65.1667,227.167 66.8333,227.833 68.5,228.5C 64.1539,228.666 59.8206,228.499 55.5,228C 52.4278,227.422 49.7612,226.255 47.5,224.5 Z"/></g>
<g><path style="opacity:1" fill="#c5c6c6" d="M 63.5,234.5 C 64.8333,234.5 66.1667,234.5 67.5,234.5C 75.4614,235.563 83.4614,236.229 91.5,236.5C 94.3463,246.011 100.68,251.677 110.5,253.5C 113.287,254.477 116.287,254.81 119.5,254.5C 120.152,255.725 121.319,256.392 123,256.5C 153.791,260.088 184.624,260.422 215.5,257.5C 215.5,256.5 215.5,255.5 215.5,254.5C 218.5,254.5 221.5,254.5 224.5,254.5C 227.718,256.056 227.052,257.556 222.5,259C 185.813,262.315 149.147,262.315 112.5,259C 109.299,257.453 106.132,255.953 103,254.5C 97.4925,256.338 94.8258,254.004 95,247.5C 93.647,246.315 92.4803,244.981 91.5,243.5C 90.0948,246.852 88.7615,247.018 87.5,244C 81.2404,242.345 74.907,241.012 68.5,240C 68.8333,239.667 69.1667,239.333 69.5,239C 67.913,238.138 66.2464,237.471 64.5,237C 63.7476,236.329 63.4142,235.496 63.5,234.5 Z"/></g>
<g><path style="opacity:1" fill="#2b2f2f" d="M 249.5,98.5 C 251.474,100.428 252.974,102.761 254,105.5C 254.667,149.167 254.667,192.833 254,236.5C 253.014,239.806 251.514,242.806 249.5,245.5C 248.5,246.167 247.5,246.833 246.5,247.5C 243.103,249.528 239.436,251.028 235.5,252C 193.665,252.167 151.998,252.667 110.5,253.5C 100.68,251.677 94.3463,246.011 91.5,236.5C 83.4614,236.229 75.4614,235.563 67.5,234.5C 71.7025,233.201 76.0358,233.201 80.5,234.5C 81.3279,233.585 82.3279,232.919 83.5,232.5C 85.4534,233.156 87.4534,233.489 89.5,233.5C 89.5,232.167 89.5,230.833 89.5,229.5C 89.8333,229.5 90.1667,229.5 90.5,229.5C 91.4985,191.67 91.8318,153.67 91.5,115.5C 91.8351,152.678 92.8351,189.678 94.5,226.5C 94.5,228.5 94.5,230.5 94.5,232.5C 96.1745,241.008 101.174,246.508 109.5,249C 150.833,249.667 192.167,249.667 233.5,249C 240.061,248.558 244.727,245.391 247.5,239.5C 248.927,237.852 249.76,235.852 250,233.5C 250.5,225.507 250.666,217.507 250.5,209.5C 250.5,183.833 250.5,158.167 250.5,132.5C 250.666,124.16 250.5,115.827 250,107.5C 249.153,105.807 248.32,104.14 247.5,102.5C 250.431,102.09 251.097,100.756 249.5,98.5 Z"/></g>
<g><path style="opacity:1" fill="#696e68" d="M 94.5,177.5 C 95.4674,178.806 96.8007,179.473 98.5,179.5C 98.6666,197.503 98.4999,215.503 98,233.5C 96.9887,232.663 95.8221,232.33 94.5,232.5C 94.5,230.5 94.5,228.5 94.5,226.5C 94.5,210.167 94.5,193.833 94.5,177.5 Z"/></g>
<g><path style="opacity:1" fill="#818681" d="M 250.5,132.5 C 250.5,158.167 250.5,183.833 250.5,209.5C 248.836,208.051 248.002,206.051 248,203.5C 247.667,204.833 247.333,206.167 247,207.5C 246.5,188.503 246.333,169.503 246.5,150.5C 247.324,146.688 247.824,142.688 248,138.5C 248.333,142.833 248.667,147.167 249,151.5C 249.172,144.987 249.672,138.653 250.5,132.5 Z"/></g>
<g><path style="opacity:1" fill="#cb2b3e" d="M 161.5,153.5 C 164.833,153.5 168.167,153.5 171.5,153.5C 161.844,164.833 151.177,175.833 139.5,186.5C 139.351,185.448 139.517,184.448 140,183.5C 143.727,181.708 145.227,179.042 144.5,175.5C 146.167,173.167 148.167,171.167 150.5,169.5C 151.568,170.434 152.901,170.768 154.5,170.5C 154.343,169.127 154.51,167.793 155,166.5C 158.73,164.454 162.23,161.954 165.5,159C 166.337,157.989 166.67,156.822 166.5,155.5C 167.552,155.649 168.552,155.483 169.5,155C 166.635,154.817 163.969,154.317 161.5,153.5 Z"/></g>
<g><path style="opacity:1" fill="#cb2b3e" d="M 234.5,137.5 C 235.5,137.5 236.5,137.5 237.5,137.5C 237.357,139.262 237.691,140.929 238.5,142.5C 235.28,145.375 232.113,148.375 229,151.5C 228.53,152.577 228.697,153.577 229.5,154.5C 229.158,155.338 228.492,155.672 227.5,155.5C 226.504,155.586 225.671,155.252 225,154.5C 219.188,159.306 213.355,163.973 207.5,168.5C 206.542,168.953 205.708,169.619 205,170.5C 204.601,170.272 204.435,169.938 204.5,169.5C 214.81,160.698 225.31,152.031 236,143.5C 236.409,141.305 235.909,139.305 234.5,137.5 Z"/></g>
<g><path style="opacity:1" fill="#cb2b3e" d="M 200.5,140.5 C 210.659,141.33 220.992,141.83 231.5,142C 216.833,154.324 201.833,166.157 186.5,177.5C 182.743,177.929 179.243,177.263 176,175.5C 170.928,176.471 165.762,176.805 160.5,176.5C 160.5,175.5 160.5,174.5 160.5,173.5C 163.956,172.301 167.289,170.801 170.5,169C 171.867,166.699 172.534,164.199 172.5,161.5C 173.5,161.5 174.5,161.5 175.5,161.5C 175.5,160.167 175.5,158.833 175.5,157.5C 177.909,155.098 179.909,152.431 181.5,149.5C 182.481,147.691 183.981,146.357 186,145.5C 189.208,148.487 191.041,147.82 191.5,143.5C 194.167,143.5 196.833,143.5 199.5,143.5C 199.263,142.209 199.596,141.209 200.5,140.5 Z"/></g>
<g><path style="opacity:1" fill="#52544f" d="M 247.5,239.5 C 244.727,245.391 240.061,248.558 233.5,249C 192.167,249.667 150.833,249.667 109.5,249C 101.174,246.508 96.1745,241.008 94.5,232.5C 95.8221,232.33 96.9887,232.663 98,233.5C 98.4999,215.503 98.6666,197.503 98.5,179.5C 98.5,178.833 98.5,178.167 98.5,177.5C 99.1667,177.5 99.5,177.167 99.5,176.5C 100.265,176.923 101.098,177.257 102,177.5C 103.586,175.956 105.42,174.789 107.5,174C 120.61,169.52 133.61,164.853 146.5,160C 145.376,159.751 144.376,159.251 143.5,158.5C 144.77,157.712 145.77,156.712 146.5,155.5C 148.47,156.162 150.47,156.828 152.5,157.5C 153.386,156.675 153.719,155.675 153.5,154.5C 154.833,154.5 156.167,154.5 157.5,154.5C 157.5,155.5 157.5,156.5 157.5,157.5C 158.873,157.343 160.207,157.51 161.5,158C 157.63,161.702 153.963,165.536 150.5,169.5C 148.167,171.167 146.167,173.167 144.5,175.5C 138.869,180.63 133.369,185.964 128,191.5C 125.038,199.074 127.538,203.908 135.5,206C 128.667,213.5 121.833,221 115,228.5C 112.093,235.6 114.259,240.266 121.5,242.5C 124.45,241.365 127.45,240.198 130.5,239C 136.533,235.989 142.2,232.489 147.5,228.5C 152.32,226.926 156.653,224.593 160.5,221.5C 176.337,213.083 192.004,204.416 207.5,195.5C 212.902,185.701 209.902,180.534 198.5,180C 201.574,177.151 204.574,174.317 207.5,171.5C 212.598,167.44 217.932,163.607 223.5,160C 225.041,158.629 226.375,157.129 227.5,155.5C 228.492,155.672 229.158,155.338 229.5,154.5C 233.422,152.085 236.922,149.085 240,145.5C 240.804,141.263 240.304,137.263 238.5,133.5C 240.936,133.683 243.103,133.016 245,131.5C 245.667,165.5 245.667,199.5 245,233.5C 244.598,234.872 244.098,236.205 243.5,237.5C 244.949,238.172 246.282,238.839 247.5,239.5 Z"/></g>
<g><path style="opacity:1" fill="#cb2b3e" d="M 167.5,213.5 C 166.126,217.187 163.459,218.853 159.5,218.5C 159.263,219.791 159.596,220.791 160.5,221.5C 156.653,224.593 152.32,226.926 147.5,228.5C 141.553,228.474 136.553,230.64 132.5,235C 129.904,236.136 127.237,236.969 124.5,237.5C 138.341,228.743 152.675,220.743 167.5,213.5 Z"/></g>
<g><path style="opacity:1" fill="#302f2c" d="M 144.5,175.5 C 145.227,179.042 143.727,181.708 140,183.5C 139.517,184.448 139.351,185.448 139.5,186.5C 137.177,189.323 134.677,191.99 132,194.5C 131.322,196.598 131.489,198.598 132.5,200.5C 133.406,201.965 134.739,202.965 136.5,203.5C 138.432,202.48 140.432,202.313 142.5,203C 141.748,203.671 141.414,204.504 141.5,205.5C 134.541,213.629 127.374,221.629 120,229.5C 116.909,235.047 118.409,237.714 124.5,237.5C 127.237,236.969 129.904,236.136 132.5,235C 136.553,230.64 141.553,228.474 147.5,228.5C 142.2,232.489 136.533,235.989 130.5,239C 127.45,240.198 124.45,241.365 121.5,242.5C 114.259,240.266 112.093,235.6 115,228.5C 121.833,221 128.667,213.5 135.5,206C 127.538,203.908 125.038,199.074 128,191.5C 133.369,185.964 138.869,180.63 144.5,175.5 Z"/></g>
<g><path style="opacity:1" fill="#cb2b3e" d="M 132.5,200.5 C 137.179,200.334 141.845,200.501 146.5,201C 144.963,202.707 143.296,204.207 141.5,205.5C 141.414,204.504 141.748,203.671 142.5,203C 140.432,202.313 138.432,202.48 136.5,203.5C 134.739,202.965 133.406,201.965 132.5,200.5 Z"/></g>
<g><path style="opacity:1" fill="#30312d" d="M 207.5,168.5 C 207.5,169.5 207.5,170.5 207.5,171.5C 204.574,174.317 201.574,177.151 198.5,180C 209.902,180.534 212.902,185.701 207.5,195.5C 192.004,204.416 176.337,213.083 160.5,221.5C 159.596,220.791 159.263,219.791 159.5,218.5C 163.459,218.853 166.126,217.187 167.5,213.5C 170.008,211.076 173.008,209.41 176.5,208.5C 184.236,204.962 191.903,201.129 199.5,197C 202.756,195.541 205.423,193.374 207.5,190.5C 206.907,188.618 206.24,186.785 205.5,185C 198.987,184.828 192.653,184.328 186.5,183.5C 192.19,178.482 198.19,173.815 204.5,169.5C 204.435,169.938 204.601,170.272 205,170.5C 205.708,169.619 206.542,168.953 207.5,168.5 Z"/></g>
<g><path style="opacity:1" fill="#cb2b3e" d="M 186.5,183.5 C 192.653,184.328 198.987,184.828 205.5,185C 206.24,186.785 206.907,188.618 207.5,190.5C 205.423,193.374 202.756,195.541 199.5,197C 191.903,201.129 184.236,204.962 176.5,208.5C 185.854,202.734 195.354,197.067 205,191.5C 205.743,189.559 205.576,187.726 204.5,186C 197.5,185.667 190.5,185.333 183.5,185C 184.244,183.961 185.244,183.461 186.5,183.5 Z"/></g>
<g><path style="opacity:1" fill="#cb2b3e" d="M 175.5,157.5 C 175.5,158.833 175.5,160.167 175.5,161.5C 174.5,161.5 173.5,161.5 172.5,161.5C 172.534,164.199 171.867,166.699 170.5,169C 167.289,170.801 163.956,172.301 160.5,173.5C 160.5,174.5 160.5,175.5 160.5,176.5C 165.762,176.805 170.928,176.471 176,175.5C 179.243,177.263 182.743,177.929 186.5,177.5C 182.239,181.316 177.906,185.149 173.5,189C 182.5,189.333 191.5,189.667 200.5,190C 177.833,202.667 155.167,215.333 132.5,228C 130.635,229.301 128.635,229.635 126.5,229C 135.343,218.659 144.343,208.493 153.5,198.5C 147.5,197.833 141.5,197.167 135.5,196.5C 148.212,182.787 161.546,169.787 175.5,157.5 Z"/></g>
<g><path style="opacity:1" fill="#2d2e36" d="M 227.5,155.5 C 226.375,157.129 225.041,158.629 223.5,160C 217.932,163.607 212.598,167.44 207.5,171.5C 207.5,170.5 207.5,169.5 207.5,168.5C 213.355,163.973 219.188,159.306 225,154.5C 225.671,155.252 226.504,155.586 227.5,155.5 Z"/></g>
<g><path style="opacity:1" fill="#cb2b3e" d="M 169.5,132.5 C 169.5,133.5 169.5,134.5 169.5,135.5C 175.332,134.278 181.165,134.278 187,135.5C 189.693,135.64 191.86,134.64 193.5,132.5C 197.362,133.423 200.696,135.09 203.5,137.5C 202.833,138.833 201.833,139.833 200.5,140.5C 199.596,141.209 199.263,142.209 199.5,143.5C 196.833,143.5 194.167,143.5 191.5,143.5C 191.041,147.82 189.208,148.487 186,145.5C 183.981,146.357 182.481,147.691 181.5,149.5C 171.81,149.832 162.144,149.498 152.5,148.5C 158.187,143.145 163.854,137.812 169.5,132.5 Z"/></g>
<g><path style="opacity:1" fill="#62645f" d="M 155.5,132.5 C 155.631,133.239 155.464,133.906 155,134.5C 149.891,137.61 146.224,141.943 144,147.5C 143.388,150.611 144.221,153.277 146.5,155.5C 145.77,156.712 144.77,157.712 143.5,158.5C 144.376,159.251 145.376,159.751 146.5,160C 133.61,164.853 120.61,169.52 107.5,174C 105.42,174.789 103.586,175.956 102,177.5C 101.098,177.257 100.265,176.923 99.5,176.5C 99.3334,163.829 99.5001,151.162 100,138.5C 100.202,140.256 100.702,141.922 101.5,143.5C 102.251,142.624 102.751,141.624 103,140.5C 103.249,141.624 103.749,142.624 104.5,143.5C 105.452,141.955 105.785,140.288 105.5,138.5C 107.5,138.5 109.5,138.5 111.5,138.5C 111.5,137.5 111.5,136.5 111.5,135.5C 119.528,135.831 127.528,135.498 135.5,134.5C 140.539,134.595 144.373,132.595 147,128.5C 149.754,130.109 152.587,131.442 155.5,132.5 Z"/></g>
<g><path style="opacity:1" fill="#cb2b3e" d="M 180.5,115.5 C 170.492,126.507 160.492,137.507 150.5,148.5C 150.608,149.442 150.941,150.275 151.5,151C 158.354,151.515 165.02,152.348 171.5,153.5C 168.167,153.5 164.833,153.5 161.5,153.5C 158.15,153.665 154.817,153.498 151.5,153C 149.785,152.223 148.785,150.89 148.5,149C 158.305,137.028 168.972,125.861 180.5,115.5 Z"/></g>
<g><path style="opacity:1" fill="#dadbda" d="M 33.5,224.5 C 42.8649,229.964 52.8649,233.298 63.5,234.5C 63.4142,235.496 63.7476,236.329 64.5,237C 66.2464,237.471 67.913,238.138 69.5,239C 69.1667,239.333 68.8333,239.667 68.5,240C 74.907,241.012 81.2404,242.345 87.5,244C 88.7615,247.018 90.0948,246.852 91.5,243.5C 92.4803,244.981 93.647,246.315 95,247.5C 94.8258,254.004 97.4925,256.338 103,254.5C 106.132,255.953 109.299,257.453 112.5,259C 149.147,262.315 185.813,262.315 222.5,259C 227.052,257.556 227.718,256.056 224.5,254.5C 227.713,254.81 230.713,254.477 233.5,253.5C 238.784,253.355 243.118,251.355 246.5,247.5C 247.5,246.833 248.5,246.167 249.5,245.5C 250.923,247.545 252.923,248.545 255.5,248.5C 255.5,250.167 255.5,251.833 255.5,253.5C 250.583,256.196 245.25,258.029 239.5,259C 228.961,261.292 218.294,262.625 207.5,263C 175.437,264.117 143.437,263.283 111.5,260.5C 104.088,258.254 96.4211,256.421 88.5,255C 86.2196,252.522 83.553,250.522 80.5,249C 72.5,247.667 64.5,246.333 56.5,245C 53.619,243.642 50.7857,242.142 48,240.5C 47.6667,240.833 47.3333,241.167 47,241.5C 42.1003,238.591 37.267,235.591 32.5,232.5C 31.6527,230.939 31.9861,229.439 33.5,228C 32.3157,226.855 32.3157,225.688 33.5,224.5 Z"/></g>
<g><path style="opacity:1" fill="#1b2022" d="M 246.5,247.5 C 243.118,251.355 238.784,253.355 233.5,253.5C 192.5,253.5 151.5,253.5 110.5,253.5C 151.998,252.667 193.665,252.167 235.5,252C 239.436,251.028 243.103,249.528 246.5,247.5 Z"/></g>
<g><path style="opacity:1" fill="#7c8084" d="M 110.5,253.5 C 151.5,253.5 192.5,253.5 233.5,253.5C 230.713,254.477 227.713,254.81 224.5,254.5C 221.5,254.5 218.5,254.5 215.5,254.5C 199.834,255.439 184.167,256.439 168.5,257.5C 152.023,256.846 135.689,255.846 119.5,254.5C 116.287,254.81 113.287,254.477 110.5,253.5 Z"/></g>
<g><path style="opacity:1" fill="#a8a9aa" d="M 119.5,254.5 C 135.689,255.846 152.023,256.846 168.5,257.5C 184.167,256.439 199.834,255.439 215.5,254.5C 215.5,255.5 215.5,256.5 215.5,257.5C 184.624,260.422 153.791,260.088 123,256.5C 121.319,256.392 120.152,255.725 119.5,254.5 Z"/></g>
</svg>
