<?xml version="1.0" encoding="UTF-8"?>
<!DOCTYPE svg PUBLIC "-//W3C//DTD SVG 1.1//EN" "http://www.w3.org/Graphics/SVG/1.1/DTD/svg11.dtd">
<svg xmlns="http://www.w3.org/2000/svg" version="1.1" width="393px" height="258px" style="shape-rendering:geometricPrecision; text-rendering:geometricPrecision; image-rendering:optimizeQuality; fill-rule:evenodd; clip-rule:evenodd" xmlns:xlink="http://www.w3.org/1999/xlink">
<g><path style="opacity:1" fill="#040404" d="M 181.5,-0.5 C 190.833,-0.5 200.167,-0.5 209.5,-0.5C 210.635,1.21321 212.302,1.87988 214.5,1.5C 247.075,6.1233 276.741,17.9566 303.5,37C 337.663,61.331 367.329,90.1643 392.5,123.5C 392.5,126.833 392.5,130.167 392.5,133.5C 363.144,173.016 327.477,205.85 285.5,232C 264.153,243.389 241.82,251.889 218.5,257.5C 203.5,257.5 188.5,257.5 173.5,257.5C 141.236,250.372 111.569,237.205 84.5,218C 52.2563,193.589 23.9229,165.422 -0.5,133.5C -0.5,130.5 -0.5,127.5 -0.5,124.5C 24.9624,91.2055 54.6291,62.0388 88.5,37C 114.78,18.5276 143.78,6.69422 175.5,1.5C 178.01,1.94649 180.01,1.27983 181.5,-0.5 Z"/></g>
<g><path style="opacity:1" fill="#808080" d="M 177.5,-0.5 C 178.833,-0.5 180.167,-0.5 181.5,-0.5C 180.01,1.27983 178.01,1.94649 175.5,1.5C 176.167,0.833333 176.833,0.166667 177.5,-0.5 Z"/></g>
<g><path style="opacity:1" fill="#616161" d="M 209.5,-0.5 C 210.833,-0.5 212.167,-0.5 213.5,-0.5C 213.833,0.166667 214.167,0.833333 214.5,1.5C 212.302,1.87988 210.635,1.21321 209.5,-0.5 Z"/></g>
<g><path style="opacity:1" fill="#fafafa" d="M 183.5,22.5 C 216.204,21.2363 246.538,29.0696 274.5,46C 310.423,67.6631 341.09,95.3297 366.5,129C 341.268,160.9 311.601,187.9 277.5,210C 226.221,241.117 174.221,242.45 121.5,214C 84.2455,191.754 52.2455,163.421 25.5,129C 54.9145,89.9012 91.2478,59.2346 134.5,37C 150.368,30.1221 166.701,25.2888 183.5,22.5 Z"/></g>
<g><path style="opacity:1" fill="#080808" d="M 183.5,43.5 C 231.374,41.2493 263.207,62.5827 279,107.5C 286.432,145.888 274.599,176.721 243.5,200C 201.338,223.63 163.504,218.13 130,183.5C 104.404,147.726 104.071,111.726 129,75.5C 143.695,58.7422 161.862,48.0756 183.5,43.5 Z"/></g>
<g><path style="opacity:1" fill="#fafafa" d="M 181.5,55.5 C 226.133,51.7206 255.3,71.054 269,113.5C 273.856,150.622 260.023,178.122 227.5,196C 189.62,210.285 158.454,201.452 134,169.5C 114.008,132.615 119.175,99.7816 149.5,71C 159.32,63.9221 169.987,58.7555 181.5,55.5 Z"/></g>
<g><path style="opacity:1" fill="#020202" d="M 188.5,87.5 C 204.048,86.512 217.215,91.512 228,102.5C 242.164,124.367 239.664,144.201 220.5,162C 209.868,169.062 198.201,171.396 185.5,169C 158.577,157.656 149.743,138.156 159,110.5C 165.799,98.859 175.633,91.1923 188.5,87.5 Z"/></g>
</svg>
