<?xml version="1.0" encoding="UTF-8"?>
<!DOCTYPE svg PUBLIC "-//W3C//DTD SVG 1.1//EN" "http://www.w3.org/Graphics/SVG/1.1/DTD/svg11.dtd">
<svg xmlns="http://www.w3.org/2000/svg" version="1.1" width="286px" height="286px" style="shape-rendering:geometricPrecision; text-rendering:geometricPrecision; image-rendering:optimizeQuality; fill-rule:evenodd; clip-rule:evenodd" xmlns:xlink="http://www.w3.org/1999/xlink">
<g><path style="opacity:1" fill="#fef7e2" d="M 159.5,18.5 C 157.716,18.1075 156.05,17.4408 154.5,16.5C 151.414,13.7774 148.08,11.2774 144.5,9C 142.16,8.25164 140.16,8.75164 138.5,10.5C 138.5,9.16667 138.5,7.83333 138.5,6.5C 145.855,5.20068 151.189,7.86735 154.5,14.5C 156.071,15.3094 157.738,15.6427 159.5,15.5C 159.5,16.5 159.5,17.5 159.5,18.5 Z"/></g>
<g><path style="opacity:1" fill="#c8a36d" d="M 132.5,15.5 C 131.137,18.9833 128.47,20.65 124.5,20.5C 125.167,19.8333 125.833,19.1667 126.5,18.5C 128.216,16.9752 130.216,15.9752 132.5,15.5 Z"/></g>
<g><path style="opacity:1" fill="#cf9f53" d="M 154.5,16.5 C 155.487,19.0858 157.487,20.4191 160.5,20.5C 162.05,21.4408 163.716,22.1075 165.5,22.5C 167.181,24.0075 169.181,25.0075 171.5,25.5C 172.167,26.1667 172.833,26.8333 173.5,27.5C 166.423,24.3026 159.09,21.6359 151.5,19.5C 149.136,16.1372 146.136,13.4705 142.5,11.5C 141.158,13.0049 139.492,13.6715 137.5,13.5C 138.888,12.1276 140.555,11.1276 142.5,10.5C 146.292,12.9698 150.292,14.9698 154.5,16.5 Z"/></g>
<g><path style="opacity:1" fill="#c6a470" d="M 154.5,16.5 C 156.05,17.4408 157.716,18.1075 159.5,18.5C 159.5,19.1667 159.833,19.5 160.5,19.5C 160.5,19.8333 160.5,20.1667 160.5,20.5C 157.487,20.4191 155.487,19.0858 154.5,16.5 Z"/></g>
<g><path style="opacity:1" fill="#f9e8cf" d="M 160.5,20.5 C 160.5,20.1667 160.5,19.8333 160.5,19.5C 163.285,18.9162 164.952,19.9162 165.5,22.5C 163.716,22.1075 162.05,21.4408 160.5,20.5 Z"/></g>
<g><path style="opacity:1" fill="#fdf5d9" d="M 126.5,18.5 C 125.833,19.1667 125.167,19.8333 124.5,20.5C 123.167,20.8333 121.833,21.1667 120.5,21.5C 121.784,19.3862 123.784,18.3862 126.5,18.5 Z"/></g>
<g><path style="opacity:1" fill="#c7a164" d="M 154.5,16.5 C 150.292,14.9698 146.292,12.9698 142.5,10.5C 140.555,11.1276 138.888,12.1276 137.5,13.5C 134.844,15.5984 132.511,18.0984 130.5,21C 126.144,21.6834 122.144,23.1834 118.5,25.5C 116.254,26.4552 113.921,27.1218 111.5,27.5C 113.364,25.9862 115.364,24.6528 117.5,23.5C 119.027,23.573 120.027,22.9063 120.5,21.5C 121.833,21.1667 123.167,20.8333 124.5,20.5C 128.47,20.65 131.137,18.9833 132.5,15.5C 134.46,13.8437 136.46,12.177 138.5,10.5C 140.16,8.75164 142.16,8.25164 144.5,9C 148.08,11.2774 151.414,13.7774 154.5,16.5 Z"/></g>
<g><path style="opacity:1" fill="#f7e9cd" d="M 165.5,22.5 C 168.393,22.0311 170.393,23.0311 171.5,25.5C 169.181,25.0075 167.181,24.0075 165.5,22.5 Z"/></g>
<g><path style="opacity:1" fill="#fcf4dd" d="M 117.5,23.5 C 115.364,24.6528 113.364,25.9862 111.5,27.5C 107.673,27.7516 104.34,29.0849 101.5,31.5C 100.833,31.5 100.167,31.5 99.5,31.5C 100.234,30.2921 100.567,28.9587 100.5,27.5C 106.232,26.3167 111.898,24.9834 117.5,23.5 Z"/></g>
<g><path style="opacity:1" fill="#dc9d44" d="M 173.5,27.5 C 174.29,28.4013 175.29,29.0679 176.5,29.5C 181.428,32.7292 186.428,36.0625 191.5,39.5C 173.505,35.0858 157.339,27.0858 143,15.5C 127.163,27.939 109.33,36.439 89.5,41C 87.6969,41.6368 86.3636,42.8035 85.5,44.5C 78.1836,45.4154 70.8503,46.0821 63.5,46.5C 61.0314,45.6829 58.3647,45.1829 55.5,45C 61.6776,43.6607 67.6776,42.1607 73.5,40.5C 75.8439,40.0603 77.8439,39.0603 79.5,37.5C 83.5483,37.6054 87.5483,37.2721 91.5,36.5C 95.6918,36.8176 99.5252,35.8176 103,33.5C 105.432,34.4496 107.932,34.4496 110.5,33.5C 110.846,29.333 113.18,27.4997 117.5,28C 118.252,27.3292 118.586,26.4959 118.5,25.5C 122.144,23.1834 126.144,21.6834 130.5,21C 132.511,18.0984 134.844,15.5984 137.5,13.5C 139.492,13.6715 141.158,13.0049 142.5,11.5C 146.136,13.4705 149.136,16.1372 151.5,19.5C 159.09,21.6359 166.423,24.3026 173.5,27.5 Z"/></g>
<g><path style="opacity:1" fill="#c7a167" d="M 111.5,27.5 C 108.691,29.8966 105.358,31.2299 101.5,31.5C 104.34,29.0849 107.673,27.7516 111.5,27.5 Z"/></g>
<g><path style="opacity:1" fill="#c39b61" d="M 173.5,27.5 C 177.297,27.8723 180.63,29.2057 183.5,31.5C 180.892,31.5997 178.558,30.9331 176.5,29.5C 175.29,29.0679 174.29,28.4013 173.5,27.5 Z"/></g>
<g><path style="opacity:1" fill="#fcf7e4" d="M 171.5,25.5 C 175.163,25.9518 178.83,26.4518 182.5,27C 183.973,27.7096 184.64,28.8762 184.5,30.5C 188.582,30.3436 192.582,30.8436 196.5,32C 198.76,32.5494 200.426,33.716 201.5,35.5C 196.743,34.81 192.076,33.81 187.5,32.5C 186.292,31.7659 184.959,31.4326 183.5,31.5C 180.63,29.2057 177.297,27.8723 173.5,27.5C 172.833,26.8333 172.167,26.1667 171.5,25.5 Z"/></g>
<g><path style="opacity:1" fill="#d39f4d" d="M 118.5,25.5 C 118.586,26.4959 118.252,27.3292 117.5,28C 113.18,27.4997 110.846,29.333 110.5,33.5C 107.932,34.4496 105.432,34.4496 103,33.5C 99.5252,35.8176 95.6918,36.8176 91.5,36.5C 93.2191,35.9779 94.5525,34.9779 95.5,33.5C 96.1667,32.8333 96.8333,32.1667 97.5,31.5C 98.1667,31.5 98.8333,31.5 99.5,31.5C 100.167,31.5 100.833,31.5 101.5,31.5C 105.358,31.2299 108.691,29.8966 111.5,27.5C 113.921,27.1218 116.254,26.4552 118.5,25.5 Z"/></g>
<g><path style="opacity:1" fill="#fdf4e0" d="M 97.5,31.5 C 96.8333,32.1667 96.1667,32.8333 95.5,33.5C 90.1667,34.5 84.8333,35.5 79.5,36.5C 85.0443,33.7814 91.0443,32.1147 97.5,31.5 Z"/></g>
<g><path style="opacity:1" fill="#c9a26b" d="M 95.5,33.5 C 94.5525,34.9779 93.2191,35.9779 91.5,36.5C 87.5483,37.2721 83.5483,37.6054 79.5,37.5C 79.5,37.1667 79.5,36.8333 79.5,36.5C 84.8333,35.5 90.1667,34.5 95.5,33.5 Z"/></g>
<g><path style="opacity:1" fill="#caa165" d="M 187.5,32.5 C 192.076,33.81 196.743,34.81 201.5,35.5C 203.838,37.0395 206.505,37.7062 209.5,37.5C 216.474,40.1088 223.808,41.4421 231.5,41.5C 232.167,41.5 232.833,41.5 233.5,41.5C 235.5,42.1667 237.5,42.8333 239.5,43.5C 228.515,43.4435 217.848,42.1101 207.5,39.5C 202.59,38.8764 197.757,37.5431 193,35.5C 189.776,37.1303 187.942,36.1303 187.5,32.5 Z"/></g>
<g><path style="opacity:1" fill="#fbf4da" d="M 209.5,37.5 C 217.163,38.2833 224.496,39.6166 231.5,41.5C 223.808,41.4421 216.474,40.1088 209.5,37.5 Z"/></g>
<g><path style="opacity:1" fill="#d59e4e" d="M 176.5,29.5 C 178.558,30.9331 180.892,31.5997 183.5,31.5C 184.959,31.4326 186.292,31.7659 187.5,32.5C 187.942,36.1303 189.776,37.1303 193,35.5C 197.757,37.5431 202.59,38.8764 207.5,39.5C 203.434,39.307 199.434,39.6403 195.5,40.5C 193.901,40.7678 192.568,40.4345 191.5,39.5C 186.428,36.0625 181.428,32.7292 176.5,29.5 Z"/></g>
<g><path style="opacity:1" fill="#fef7e2" d="M 65.5,39.5 C 55.7138,41.4768 45.7138,42.9768 35.5,44C 34.9558,44.7172 34.2891,45.2172 33.5,45.5C 33.5,45.1667 33.5,44.8333 33.5,44.5C 34.2341,43.2921 34.5674,41.9587 34.5,40.5C 36.6463,40.8782 38.813,41.2115 41,41.5C 49.1298,40.337 57.2964,39.6703 65.5,39.5 Z"/></g>
<g><path style="opacity:1" fill="#f8ebcf" d="M 233.5,41.5 C 239.878,41.2946 246.211,41.6279 252.5,42.5C 252.5,49.5 252.5,56.5 252.5,63.5C 252.167,63.5 251.833,63.5 251.5,63.5C 251.666,57.4908 251.499,51.4908 251,45.5C 250.5,45 250,44.5 249.5,44C 246.183,43.5017 242.85,43.335 239.5,43.5C 237.5,42.8333 235.5,42.1667 233.5,41.5 Z"/></g>
<g><path style="opacity:1" fill="#d39d4b" d="M 73.5,40.5 C 67.6776,42.1607 61.6776,43.6607 55.5,45C 58.3647,45.1829 61.0314,45.6829 63.5,46.5C 62.4324,47.4345 61.099,47.7678 59.5,47.5C 54.7286,47.4624 50.062,46.7957 45.5,45.5C 54.481,42.5573 63.8143,40.8906 73.5,40.5 Z"/></g>
<g><path style="opacity:1" fill="#c8a36b" d="M 79.5,37.5 C 77.8439,39.0603 75.8439,40.0603 73.5,40.5C 63.8143,40.8906 54.481,42.5573 45.5,45.5C 43.8333,45.5 42.1667,45.5 40.5,45.5C 38.5112,44.1134 36.6779,44.4468 35,46.5C 34.5006,52.1569 34.3339,57.8236 34.5,63.5C 34.5,68.8333 34.5,74.1667 34.5,79.5C 33.5052,68.3456 33.1719,57.0123 33.5,45.5C 34.2891,45.2172 34.9558,44.7172 35.5,44C 45.7138,42.9768 55.7138,41.4768 65.5,39.5C 70.1831,38.9262 74.8498,38.2596 79.5,37.5 Z"/></g>
<g><path style="opacity:1" fill="#de9d42" d="M 40.5,45.5 C 42.1667,45.5 43.8333,45.5 45.5,45.5C 50.062,46.7957 54.7286,47.4624 59.5,47.5C 53.0721,49.126 46.4054,49.7927 39.5,49.5C 39.1193,48.0689 38.1193,47.2355 36.5,47C 37.5634,45.8118 38.8967,45.3118 40.5,45.5 Z"/></g>
<g><path style="opacity:1" fill="#fedea4" d="M 132.5,44.5 C 132.833,44.5 133.167,44.5 133.5,44.5C 134.014,51.0591 134.68,57.5591 135.5,64C 134.053,70.2015 133.387,76.5349 133.5,83C 133.855,133.714 134.189,184.381 134.5,235C 134.055,237.59 133.389,240.09 132.5,242.5C 126.354,238.925 120.354,235.092 114.5,231C 112.461,229.074 110.794,226.907 109.5,224.5C 114.718,222.096 117.218,223.762 117,229.5C 118.558,231.768 120.724,232.934 123.5,233C 125.351,234.684 127.018,236.517 128.5,238.5C 129.538,234.905 130.204,231.238 130.5,227.5C 130.605,167.855 130.272,108.188 129.5,48.5C 127.058,48.3537 126.391,49.187 127.5,51C 126.421,51.956 125.255,52.7894 124,53.5C 121.936,52.4086 119.769,52.2419 117.5,53C 116.181,55.2852 114.681,57.4518 113,59.5C 111.492,57.1616 109.325,56.1616 106.5,56.5C 108.261,55.6873 109.928,54.6873 111.5,53.5C 119.114,51.8536 126.114,48.8536 132.5,44.5 Z"/></g>
<g><path style="opacity:1" fill="#fbb54d" d="M 191.5,39.5 C 192.568,40.4345 193.901,40.7678 195.5,40.5C 202.593,43.3809 209.927,45.7143 217.5,47.5C 215.512,47.8271 213.512,48.1604 211.5,48.5C 209.714,48.3038 208.381,47.4705 207.5,46C 203.789,45.8253 200.122,45.3253 196.5,44.5C 192.847,42.4236 189.014,40.7569 185,39.5C 180.283,39.6653 175.45,40.3319 170.5,41.5C 167.977,42.0182 165.977,43.3515 164.5,45.5C 161.416,42.5555 159.416,43.2221 158.5,47.5C 157.833,47.5 157.167,47.5 156.5,47.5C 151.979,44.3095 147.479,40.9762 143,37.5C 142.601,37.7284 142.435,38.0618 142.5,38.5C 140.079,38.8782 137.746,39.5448 135.5,40.5C 129.595,43.7527 123.595,46.9193 117.5,50C 115.527,50.4955 113.527,50.6621 111.5,50.5C 111.5,51.5 111.5,52.5 111.5,53.5C 105.802,54.2534 100.468,55.92 95.5,58.5C 88.1478,58.6683 80.8145,59.1683 73.5,60C 72.8333,60.6667 72.1667,61.3333 71.5,62C 66.8333,62.3333 62.1667,62.6667 57.5,63C 56.171,73.9314 56.171,84.7647 57.5,95.5C 57.3992,105.387 58.0659,115.221 59.5,125C 57.4334,129.556 58.4334,133.056 62.5,135.5C 63.2276,138.079 63.7276,140.746 64,143.5C 65.9173,149.12 68.0839,154.453 70.5,159.5C 71.5702,165.142 73.2369,170.476 75.5,175.5C 74.1779,175.33 73.0113,175.663 72,176.5C 71.0991,179.071 69.7658,181.404 68,183.5C 66.8325,186.893 67.6658,189.559 70.5,191.5C 71.3078,193.423 71.8078,195.423 72,197.5C 74.2365,196.944 76.2365,195.944 78,194.5C 78.4339,198.548 78.4339,202.548 78,206.5C 78.4505,203.894 79.9505,202.561 82.5,202.5C 81.9586,205.652 82.9586,208.152 85.5,210C 83.6393,211.862 82.3059,211.362 81.5,208.5C 80.5481,210.045 80.2148,211.712 80.5,213.5C 69.1255,197.106 60.7922,179.106 55.5,159.5C 52.0276,146.777 48.6943,134.111 45.5,121.5C 45.7471,118.061 45.4137,114.728 44.5,111.5C 46.3985,101.084 46.7318,90.4177 45.5,79.5C 44.1667,79.5 42.8333,79.5 41.5,79.5C 40.2612,69.689 39.5945,59.689 39.5,49.5C 46.4054,49.7927 53.0721,49.126 59.5,47.5C 61.099,47.7678 62.4324,47.4345 63.5,46.5C 70.8503,46.0821 78.1836,45.4154 85.5,44.5C 86.3636,42.8035 87.6969,41.6368 89.5,41C 109.33,36.439 127.163,27.939 143,15.5C 157.339,27.0858 173.505,35.0858 191.5,39.5 Z"/></g>
<g><path style="opacity:1" fill="#fcdeaa" d="M 133.5,44.5 C 133.833,44.5 134.167,44.5 134.5,44.5C 135.833,44.5 137.167,44.5 138.5,44.5C 138.168,109.335 138.501,174.002 139.5,238.5C 139.5,239.5 139.5,240.5 139.5,241.5C 139.038,242.88 138.038,243.547 136.5,243.5C 135.151,243.154 133.817,242.821 132.5,242.5C 133.389,240.09 134.055,237.59 134.5,235C 134.189,184.381 133.855,133.714 133.5,83C 133.387,76.5349 134.053,70.2015 135.5,64C 134.68,57.5591 134.014,51.0591 133.5,44.5 Z"/></g>
<g><path style="opacity:1" fill="#fedc9d" d="M 142.5,38.5 C 142.5,40.8333 142.5,43.1667 142.5,45.5C 141.883,45.6107 141.383,45.944 141,46.5C 140.833,111.668 140.333,176.668 139.5,241.5C 139.5,240.5 139.5,239.5 139.5,238.5C 139.5,173.5 139.5,108.5 139.5,43.5C 137.585,43.2155 135.919,43.5489 134.5,44.5C 134.167,44.5 133.833,44.5 133.5,44.5C 133.167,44.5 132.833,44.5 132.5,44.5C 133.789,43.3634 134.789,42.0301 135.5,40.5C 137.746,39.5448 140.079,38.8782 142.5,38.5 Z"/></g>
<g><path style="opacity:1" fill="#fedf98" d="M 142.5,45.5 C 142.5,112.833 142.5,180.167 142.5,247.5C 142.167,247.5 141.833,247.5 141.5,247.5C 138.093,246.602 135.093,244.935 132.5,242.5C 133.817,242.821 135.151,243.154 136.5,243.5C 138.038,243.547 139.038,242.88 139.5,241.5C 140.333,176.668 140.833,111.668 141,46.5C 141.383,45.944 141.883,45.6107 142.5,45.5 Z"/></g>
<g><path style="opacity:1" fill="#d68d2e" d="M 156.5,47.5 C 153.794,47.4249 151.127,47.0916 148.5,46.5C 148.833,43.5 147.5,42.1667 144.5,42.5C 144.333,109.501 144.5,176.501 145,243.5C 147.606,242.23 149.939,240.563 152,238.5C 153.356,239.38 154.856,239.714 156.5,239.5C 152.194,242.657 147.528,245.324 142.5,247.5C 142.5,180.167 142.5,112.833 142.5,45.5C 142.5,43.1667 142.5,40.8333 142.5,38.5C 142.435,38.0618 142.601,37.7284 143,37.5C 147.479,40.9762 151.979,44.3095 156.5,47.5 Z"/></g>
<g><path style="opacity:1" fill="#c19758" d="M 239.5,43.5 C 242.85,43.335 246.183,43.5017 249.5,44C 250,44.5 250.5,45 251,45.5C 251.499,51.4908 251.666,57.4908 251.5,63.5C 251.817,67.7016 251.483,71.7016 250.5,75.5C 250.832,65.8104 250.498,56.1437 249.5,46.5C 245.724,46.23 242.39,45.23 239.5,43.5 Z"/></g>
<g><path style="opacity:1" fill="#f1b95d" d="M 135.5,40.5 C 134.789,42.0301 133.789,43.3634 132.5,44.5C 126.114,48.8536 119.114,51.8536 111.5,53.5C 111.5,52.5 111.5,51.5 111.5,50.5C 113.527,50.6621 115.527,50.4955 117.5,50C 123.595,46.9193 129.595,43.7527 135.5,40.5 Z"/></g>
<g><path style="opacity:1" fill="#e2881d" d="M 156.5,47.5 C 157.167,47.5 157.833,47.5 158.5,47.5C 159.551,54.3923 163.384,57.059 170,55.5C 173.09,56.0953 175.756,57.4287 178,59.5C 179.514,59.2305 181.014,58.8971 182.5,58.5C 190.347,62.5446 198.68,64.2112 207.5,63.5C 214.059,64.0135 220.559,64.6802 227,65.5C 227.59,75.5139 227.424,85.5139 226.5,95.5C 225.542,95.9528 224.708,96.6195 224,97.5C 223.7,104.901 222.867,112.234 221.5,119.5C 220.416,120.665 219.583,121.998 219,123.5C 218.667,123.167 218.333,122.833 218,122.5C 217.257,124.441 217.424,126.274 218.5,128C 217.03,135.043 216.197,142.21 216,149.5C 214.951,151.107 213.451,151.773 211.5,151.5C 211.201,156.569 210.701,161.569 210,166.5C 203.293,177.575 197.293,189.242 192,201.5C 191.506,203.134 191.34,204.801 191.5,206.5C 182.353,220.317 170.687,231.317 156.5,239.5C 154.856,239.714 153.356,239.38 152,238.5C 149.939,240.563 147.606,242.23 145,243.5C 144.5,176.501 144.333,109.501 144.5,42.5C 147.5,42.1667 148.833,43.5 148.5,46.5C 151.127,47.0916 153.794,47.4249 156.5,47.5 Z"/></g>
<g><path style="opacity:1" fill="#edbb61" d="M 111.5,53.5 C 109.928,54.6873 108.261,55.6873 106.5,56.5C 102.803,57.0078 99.1359,57.6745 95.5,58.5C 100.468,55.92 105.802,54.2534 111.5,53.5 Z"/></g>
<g><path style="opacity:1" fill="#fddea8" d="M 109.5,224.5 C 103.357,219.7 98.3574,214.033 94.5,207.5C 93.8647,202.852 91.8647,198.852 88.5,195.5C 85.5272,188.26 81.8606,181.593 77.5,175.5C 78.2563,170.813 76.7563,167.147 73,164.5C 70.5187,154.982 68.5187,145.315 67,135.5C 66.4216,132.428 65.255,129.761 63.5,127.5C 63.1667,127.5 62.8333,127.5 62.5,127.5C 62.0578,123.846 61.7244,120.179 61.5,116.5C 61.3427,107.848 61.3427,99.348 61.5,91C 59.6852,84.0398 59.0186,76.8731 59.5,69.5C 60.8221,69.33 61.9887,69.6634 63,70.5C 65.3545,68.363 68.1878,67.363 71.5,67.5C 71.5,66.5 71.5,65.5 71.5,64.5C 81.5857,63.6463 91.5857,62.1463 101.5,60C 103.59,59.3305 105.257,58.1639 106.5,56.5C 109.325,56.1616 111.492,57.1616 113,59.5C 114.681,57.4518 116.181,55.2852 117.5,53C 119.769,52.2419 121.936,52.4086 124,53.5C 125.255,52.7894 126.421,51.956 127.5,51C 126.391,49.187 127.058,48.3537 129.5,48.5C 130.272,108.188 130.605,167.855 130.5,227.5C 130.204,231.238 129.538,234.905 128.5,238.5C 127.018,236.517 125.351,234.684 123.5,233C 120.724,232.934 118.558,231.768 117,229.5C 117.218,223.762 114.718,222.096 109.5,224.5 Z"/></g>
<g><path style="opacity:1" fill="#fdd88f" d="M 106.5,56.5 C 105.257,58.1639 103.59,59.3305 101.5,60C 91.5857,62.1463 81.5857,63.6463 71.5,64.5C 67.1667,64.5 62.8333,64.5 58.5,64.5C 71.0197,63.7969 83.353,61.7969 95.5,58.5C 99.1359,57.6745 102.803,57.0078 106.5,56.5 Z"/></g>
<g><path style="opacity:1" fill="#e08c24" d="M 158.5,47.5 C 164.354,50.6192 170.354,53.4525 176.5,56C 186.674,59.4652 197.007,61.9652 207.5,63.5C 198.68,64.2112 190.347,62.5446 182.5,58.5C 181.014,58.8971 179.514,59.2305 178,59.5C 175.756,57.4287 173.09,56.0953 170,55.5C 163.384,57.059 159.551,54.3923 158.5,47.5 Z"/></g>
<g><path style="opacity:1" fill="#fee0a8" d="M 134.5,44.5 C 135.919,43.5489 137.585,43.2155 139.5,43.5C 139.5,108.5 139.5,173.5 139.5,238.5C 138.501,174.002 138.168,109.335 138.5,44.5C 137.167,44.5 135.833,44.5 134.5,44.5 Z"/></g>
<g><path style="opacity:1" fill="#f5b44e" d="M 223.5,47.5 C 230.753,48.9379 238.087,49.6045 245.5,49.5C 244.75,66.1672 243.917,82.8339 243,99.5C 242.161,103.637 241.327,107.637 240.5,111.5C 241.401,101.058 242.068,90.5584 242.5,80C 242.429,71.1413 241.929,62.308 241,53.5C 238.031,53.4806 234.865,53.3139 231.5,53C 230.953,52.0754 230.287,51.2421 229.5,50.5C 227.807,52.2786 225.807,52.7786 223.5,52C 224.5,51.6667 225.5,51.3333 226.5,51C 224.574,50.5776 223.574,49.4109 223.5,47.5 Z"/></g>
<g><path style="opacity:1" fill="#d89d47" d="M 207.5,39.5 C 217.848,42.1101 228.515,43.4435 239.5,43.5C 242.39,45.23 245.724,46.23 249.5,46.5C 250.498,56.1437 250.832,65.8104 250.5,75.5C 250.5,76.8333 250.5,78.1667 250.5,79.5C 248.697,90.692 247.03,102.025 245.5,113.5C 243.396,119.188 242.23,125.188 242,131.5C 241.667,131.167 241.333,130.833 241,130.5C 240.501,134.821 240.334,139.154 240.5,143.5C 238.902,145.857 237.902,148.523 237.5,151.5C 235.827,152.343 234.66,153.676 234,155.5C 234,158.167 234,160.833 234,163.5C 232.171,165.156 230.837,167.156 230,169.5C 228.599,177.025 226.766,184.358 224.5,191.5C 223.141,192.007 222.141,193.007 221.5,194.5C 220.571,193.45 219.905,193.45 219.5,194.5C 218.876,194.083 218.543,193.416 218.5,192.5C 219.866,190.63 221.033,188.63 222,186.5C 223.011,185.663 224.178,185.33 225.5,185.5C 226.014,183.488 226.18,181.488 226,179.5C 225.667,179.833 225.333,180.167 225,180.5C 224.506,178.866 224.34,177.199 224.5,175.5C 231.718,154.774 237.052,133.441 240.5,111.5C 241.327,107.637 242.161,103.637 243,99.5C 243.917,82.8339 244.75,66.1672 245.5,49.5C 238.087,49.6045 230.753,48.9379 223.5,47.5C 221.5,47.5 219.5,47.5 217.5,47.5C 209.927,45.7143 202.593,43.3809 195.5,40.5C 199.434,39.6403 203.434,39.307 207.5,39.5 Z"/></g>
<g><path style="opacity:1" fill="#f8fdf4" d="M 252.5,42.5 C 253.496,42.4142 254.329,42.7476 255,43.5C 255.186,56.2121 255.686,68.8788 256.5,81.5C 255.721,86.1133 255.221,90.78 255,95.5C 253.958,84.7063 253.125,74.0397 252.5,63.5C 252.5,56.5 252.5,49.5 252.5,42.5 Z"/></g>
<g><path style="opacity:1" fill="#f2b758" d="M 95.5,58.5 C 83.353,61.7969 71.0197,63.7969 58.5,64.5C 57.5058,74.6532 57.1724,84.9865 57.5,95.5C 56.171,84.7647 56.171,73.9314 57.5,63C 62.1667,62.6667 66.8333,62.3333 71.5,62C 72.1667,61.3333 72.8333,60.6667 73.5,60C 80.8145,59.1683 88.1478,58.6683 95.5,58.5 Z"/></g>
<g><path style="opacity:1" fill="#fdecdc" d="M 251.5,63.5 C 251.833,63.5 252.167,63.5 252.5,63.5C 252.899,74.3864 252.233,85.0531 250.5,95.5C 250.5,93.5 250.5,91.5 250.5,89.5C 250.5,86.1667 250.5,82.8333 250.5,79.5C 250.5,78.1667 250.5,76.8333 250.5,75.5C 251.483,71.7016 251.817,67.7016 251.5,63.5 Z"/></g>
<g><path style="opacity:1" fill="#fdda97" d="M 58.5,64.5 C 62.8333,64.5 67.1667,64.5 71.5,64.5C 71.5,65.5 71.5,66.5 71.5,67.5C 68.1878,67.363 65.3545,68.363 63,70.5C 61.9887,69.6634 60.8221,69.33 59.5,69.5C 59.0186,76.8731 59.6852,84.0398 61.5,91C 61.3427,99.348 61.3427,107.848 61.5,116.5C 60.3806,109.325 59.0473,102.325 57.5,95.5C 57.1724,84.9865 57.5058,74.6532 58.5,64.5 Z"/></g>
<g><path style="opacity:1" fill="#ca9f58" d="M 34.5,63.5 C 35.6579,73.9871 36.4912,84.6538 37,95.5C 37.0838,99.4349 38.0838,103.102 40,106.5C 41.5989,120.646 43.4323,134.646 45.5,148.5C 44.8333,146.833 44.1667,145.167 43.5,143.5C 42.5,138.167 41.5,132.833 40.5,127.5C 40.6592,119.122 39.3259,111.122 36.5,103.5C 36.7845,101.585 36.4511,99.9187 35.5,98.5C 35.5,97.5 35.5,96.5 35.5,95.5C 35.1667,90.1667 34.8333,84.8333 34.5,79.5C 34.5,74.1667 34.5,68.8333 34.5,63.5 Z"/></g>
<g><path style="opacity:1" fill="#fbf5e3" d="M 33.5,44.5 C 33.5,44.8333 33.5,45.1667 33.5,45.5C 33.1719,57.0123 33.5052,68.3456 34.5,79.5C 34.8333,84.8333 35.1667,90.1667 35.5,95.5C 34.5041,95.5858 33.6708,95.2524 33,94.5C 32.5973,77.7824 31.7639,61.1157 30.5,44.5C 31.5,44.5 32.5,44.5 33.5,44.5 Z"/></g>
<g><path style="opacity:1" fill="#f7b849" d="M 41.5,79.5 C 42.8333,79.5 44.1667,79.5 45.5,79.5C 46.7318,90.4177 46.3985,101.084 44.5,111.5C 42.8628,101.034 41.8628,90.3678 41.5,79.5 Z"/></g>
<g><path style="opacity:1" fill="#c4995a" d="M 250.5,79.5 C 250.5,82.8333 250.5,86.1667 250.5,89.5C 249.518,92.9619 249.185,96.6286 249.5,100.5C 248.313,103.946 247.646,107.613 247.5,111.5C 246.859,117.025 245.859,122.358 244.5,127.5C 244.833,122.833 245.167,118.167 245.5,113.5C 247.03,102.025 248.697,90.692 250.5,79.5 Z"/></g>
<g><path style="opacity:1" fill="#fdf5da" d="M 250.5,89.5 C 250.5,91.5 250.5,93.5 250.5,95.5C 250.849,109.917 248.682,123.917 244,137.5C 243.825,141.211 243.325,144.878 242.5,148.5C 241.482,149.193 240.482,149.859 239.5,150.5C 240.167,148.167 240.833,145.833 241.5,143.5C 242.523,138.139 243.523,132.806 244.5,127.5C 245.859,122.358 246.859,117.025 247.5,111.5C 249.414,108.316 250.08,104.649 249.5,100.5C 249.185,96.6286 249.518,92.9619 250.5,89.5 Z"/></g>
<g><path style="opacity:1" fill="#fbebcd" d="M 35.5,98.5 C 36.4511,99.9187 36.7845,101.585 36.5,103.5C 36.8333,106.167 37.1667,108.833 37.5,111.5C 35.5698,107.627 34.9031,103.294 35.5,98.5 Z"/></g>
<g><path style="opacity:1" fill="#fae6ba" d="M 249.5,100.5 C 250.08,104.649 249.414,108.316 247.5,111.5C 247.646,107.613 248.313,103.946 249.5,100.5 Z"/></g>
<g><path style="opacity:1" fill="#c4a368" d="M 36.5,103.5 C 39.3259,111.122 40.6592,119.122 40.5,127.5C 39.8333,124.833 39.1667,122.167 38.5,119.5C 38.1667,116.833 37.8333,114.167 37.5,111.5C 37.1667,108.833 36.8333,106.167 36.5,103.5 Z"/></g>
<g><path style="opacity:1" fill="#f3b854" d="M 57.5,95.5 C 59.0473,102.325 60.3806,109.325 61.5,116.5C 61.7244,120.179 62.0578,123.846 62.5,127.5C 62.5,130.167 62.5,132.833 62.5,135.5C 58.4334,133.056 57.4334,129.556 59.5,125C 58.0659,115.221 57.3992,105.387 57.5,95.5 Z"/></g>
<g><path style="opacity:1" fill="#ca9e55" d="M 245.5,113.5 C 245.167,118.167 244.833,122.833 244.5,127.5C 243.523,132.806 242.523,138.139 241.5,143.5C 241.167,143.5 240.833,143.5 240.5,143.5C 240.334,139.154 240.501,134.821 241,130.5C 241.333,130.833 241.667,131.167 242,131.5C 242.23,125.188 243.396,119.188 245.5,113.5 Z"/></g>
<g><path style="opacity:1" fill="#fcf5e0" d="M 38.5,119.5 C 39.1667,122.167 39.8333,124.833 40.5,127.5C 41.5,132.833 42.5,138.167 43.5,143.5C 41.2744,140.7 39.7744,137.367 39,133.5C 38.5008,128.845 38.3342,124.179 38.5,119.5 Z"/></g>
<g><path style="opacity:1" fill="#fcb54c" d="M 217.5,47.5 C 219.5,47.5 221.5,47.5 223.5,47.5C 223.574,49.4109 224.574,50.5776 226.5,51C 225.5,51.3333 224.5,51.6667 223.5,52C 225.807,52.7786 227.807,52.2786 229.5,50.5C 230.287,51.2421 230.953,52.0754 231.5,53C 234.865,53.3139 238.031,53.4806 241,53.5C 241.929,62.308 242.429,71.1413 242.5,80C 242.068,90.5584 241.401,101.058 240.5,111.5C 237.052,133.441 231.718,154.774 224.5,175.5C 221.327,182.33 218.327,189.33 215.5,196.5C 213.952,196.821 213.285,197.821 213.5,199.5C 197.867,230.799 174.2,254.132 142.5,269.5C 138.094,268.593 134.094,266.927 130.5,264.5C 128.721,263.33 127.721,261.664 127.5,259.5C 126.432,258.566 125.099,258.232 123.5,258.5C 122.819,251.819 119.152,248.152 112.5,247.5C 112.241,244.52 113.574,242.687 116.5,242C 118.809,241.244 120.809,241.744 122.5,243.5C 123.265,242.388 124.265,241.721 125.5,241.5C 128.789,243.156 131.789,245.323 134.5,248C 136.847,248.334 139.181,248.167 141.5,247.5C 141.833,247.5 142.167,247.5 142.5,247.5C 147.528,245.324 152.194,242.657 156.5,239.5C 170.687,231.317 182.353,220.317 191.5,206.5C 196.502,199.623 201.002,192.29 205,184.5C 217.182,156.106 224.349,126.439 226.5,95.5C 227.424,85.5139 227.59,75.5139 227,65.5C 220.559,64.6802 214.059,64.0135 207.5,63.5C 197.007,61.9652 186.674,59.4652 176.5,56C 170.354,53.4525 164.354,50.6192 158.5,47.5C 159.416,43.2221 161.416,42.5555 164.5,45.5C 165.977,43.3515 167.977,42.0182 170.5,41.5C 175.45,40.3319 180.283,39.6653 185,39.5C 189.014,40.7569 192.847,42.4236 196.5,44.5C 200.122,45.3253 203.789,45.8253 207.5,46C 208.381,47.4705 209.714,48.3038 211.5,48.5C 213.512,48.1604 215.512,47.8271 217.5,47.5 Z"/></g>
<g><path style="opacity:1" fill="#f1be6a" d="M 62.5,127.5 C 62.8333,127.5 63.1667,127.5 63.5,127.5C 64.595,138.448 66.9284,149.115 70.5,159.5C 68.0839,154.453 65.9173,149.12 64,143.5C 63.7276,140.746 63.2276,138.079 62.5,135.5C 62.5,132.833 62.5,130.167 62.5,127.5 Z"/></g>
<g><path style="opacity:1" fill="#de9e43" d="M 45.5,121.5 C 48.6943,134.111 52.0276,146.777 55.5,159.5C 54.1411,160.007 53.1411,161.007 52.5,162.5C 52.3545,155.63 50.5211,149.297 47,143.5C 47.0868,138.037 46.2535,132.87 44.5,128C 45.4231,125.959 45.7564,123.792 45.5,121.5 Z"/></g>
<g><path style="opacity:1" fill="#c2985e" d="M 240.5,143.5 C 240.833,143.5 241.167,143.5 241.5,143.5C 240.833,145.833 240.167,148.167 239.5,150.5C 239.5,151.5 239.5,152.5 239.5,153.5C 237.926,155.102 237.259,157.102 237.5,159.5C 236.833,160.5 236.167,161.5 235.5,162.5C 235.414,158.681 236.081,155.015 237.5,151.5C 237.902,148.523 238.902,145.857 240.5,143.5 Z"/></g>
<g><path style="opacity:1" fill="#faf0da" d="M 43.5,143.5 C 44.1667,145.167 44.8333,146.833 45.5,148.5C 45.5,148.833 45.5,149.167 45.5,149.5C 46.4822,152.763 47.1489,156.097 47.5,159.5C 45.5905,158.025 44.4238,156.025 44,153.5C 43.5017,150.183 43.335,146.85 43.5,143.5 Z"/></g>
<g><path style="opacity:1" fill="#feda98" d="M 63.5,127.5 C 65.255,129.761 66.4216,132.428 67,135.5C 68.5187,145.315 70.5187,154.982 73,164.5C 76.7563,167.147 78.2563,170.813 77.5,175.5C 76.8333,175.5 76.1667,175.5 75.5,175.5C 73.2369,170.476 71.5702,165.142 70.5,159.5C 66.9284,149.115 64.595,138.448 63.5,127.5 Z"/></g>
<g><path style="opacity:1" fill="#c6a262" d="M 45.5,149.5 C 46.4972,149.47 47.1639,149.97 47.5,151C 48.3492,155.624 49.3492,160.124 50.5,164.5C 49.8333,163.5 49.1667,162.5 48.5,161.5C 48.6716,160.508 48.3382,159.842 47.5,159.5C 47.1489,156.097 46.4822,152.763 45.5,149.5 Z"/></g>
<g><path style="opacity:1" fill="#cb9e53" d="M 237.5,151.5 C 236.081,155.015 235.414,158.681 235.5,162.5C 235.037,165.221 234.371,167.888 233.5,170.5C 233.5,170.833 233.5,171.167 233.5,171.5C 231.654,174.54 230.321,177.873 229.5,181.5C 228.217,185.008 226.551,188.342 224.5,191.5C 226.766,184.358 228.599,177.025 230,169.5C 230.837,167.156 232.171,165.156 234,163.5C 234,160.833 234,158.167 234,155.5C 234.66,153.676 235.827,152.343 237.5,151.5 Z"/></g>
<g><path style="opacity:1" fill="#fcebce" d="M 239.5,153.5 C 239.946,156.01 239.28,158.01 237.5,159.5C 237.259,157.102 237.926,155.102 239.5,153.5 Z"/></g>
<g><path style="opacity:1" fill="#d99e48" d="M 40.5,45.5 C 38.8967,45.3118 37.5634,45.8118 36.5,47C 38.1193,47.2355 39.1193,48.0689 39.5,49.5C 39.5945,59.689 40.2612,69.689 41.5,79.5C 41.8628,90.3678 42.8628,101.034 44.5,111.5C 45.4137,114.728 45.7471,118.061 45.5,121.5C 45.7564,123.792 45.4231,125.959 44.5,128C 46.2535,132.87 47.0868,138.037 47,143.5C 50.5211,149.297 52.3545,155.63 52.5,162.5C 53.1411,161.007 54.1411,160.007 55.5,159.5C 60.7922,179.106 69.1255,197.106 80.5,213.5C 83.8609,220.856 88.6942,227.189 95,232.5C 96.0086,234.025 96.5086,235.692 96.5,237.5C 101.24,240.732 105.573,244.565 109.5,249C 114.118,251.95 118.452,255.284 122.5,259C 124.134,259.494 125.801,259.66 127.5,259.5C 127.721,261.664 128.721,263.33 130.5,264.5C 128.857,264.48 127.524,265.147 126.5,266.5C 124.184,264.506 121.518,263.506 118.5,263.5C 117.535,259.892 115.202,258.226 111.5,258.5C 110.167,257.833 109.167,256.833 108.5,255.5C 106.684,252.21 104.184,249.544 101,247.5C 100.51,246.207 100.343,244.873 100.5,243.5C 98.8333,243.5 97.1667,243.5 95.5,243.5C 94.5,243.167 93.8333,242.5 93.5,241.5C 90.7151,234.992 86.3818,229.992 80.5,226.5C 80.5,226.167 80.5,225.833 80.5,225.5C 77.7076,218.59 73.8743,212.257 69,206.5C 68.8966,202.261 67.0633,199.261 63.5,197.5C 62.8827,191.266 60.716,185.599 57,180.5C 56.5065,178.866 56.3398,177.199 56.5,175.5C 55.5,175.5 54.5,175.5 53.5,175.5C 53.5,174.833 53.5,174.167 53.5,173.5C 53.6633,171.143 53.4966,168.81 53,166.5C 52.2917,165.619 51.4584,164.953 50.5,164.5C 49.3492,160.124 48.3492,155.624 47.5,151C 47.1639,149.97 46.4972,149.47 45.5,149.5C 45.5,149.167 45.5,148.833 45.5,148.5C 43.4323,134.646 41.5989,120.646 40,106.5C 38.0838,103.102 37.0838,99.4349 37,95.5C 36.4912,84.6538 35.6579,73.9871 34.5,63.5C 34.3339,57.8236 34.5006,52.1569 35,46.5C 36.6779,44.4468 38.5112,44.1134 40.5,45.5 Z"/></g>
<g><path style="opacity:1" fill="#df8a20" d="M 226.5,95.5 C 224.349,126.439 217.182,156.106 205,184.5C 201.002,192.29 196.502,199.623 191.5,206.5C 191.34,204.801 191.506,203.134 192,201.5C 197.293,189.242 203.293,177.575 210,166.5C 210.701,161.569 211.201,156.569 211.5,151.5C 213.451,151.773 214.951,151.107 216,149.5C 216.197,142.21 217.03,135.043 218.5,128C 217.424,126.274 217.257,124.441 218,122.5C 218.333,122.833 218.667,123.167 219,123.5C 219.583,121.998 220.416,120.665 221.5,119.5C 222.867,112.234 223.7,104.901 224,97.5C 224.708,96.6195 225.542,95.9528 226.5,95.5 Z"/></g>
<g><path style="opacity:1" fill="#faf0ca" d="M 237.5,159.5 C 238.091,163.964 236.758,167.631 233.5,170.5C 234.371,167.888 235.037,165.221 235.5,162.5C 236.167,161.5 236.833,160.5 237.5,159.5 Z"/></g>
<g><path style="opacity:1" fill="#c49d5a" d="M 50.5,164.5 C 51.4584,164.953 52.2917,165.619 53,166.5C 53.4966,168.81 53.6633,171.143 53.5,173.5C 51.9281,170.785 50.9281,167.785 50.5,164.5 Z"/></g>
<g><path style="opacity:1" fill="#f6ebce" d="M 48.5,161.5 C 49.1667,162.5 49.8333,163.5 50.5,164.5C 50.9281,167.785 51.9281,170.785 53.5,173.5C 53.5,174.167 53.5,174.833 53.5,175.5C 51.8762,173.849 50.5429,171.849 49.5,169.5C 48.52,166.914 48.1866,164.247 48.5,161.5 Z"/></g>
<g><path style="opacity:1" fill="#fcf3d1" d="M 233.5,171.5 C 233.037,174.482 232.704,177.482 232.5,180.5C 231.391,180.557 230.391,180.89 229.5,181.5C 230.321,177.873 231.654,174.54 233.5,171.5 Z"/></g>
<g><path style="opacity:1" fill="#c8a066" d="M 53.5,176.5 C 53.5,176.167 53.5,175.833 53.5,175.5C 54.5,175.5 55.5,175.5 56.5,175.5C 56.3398,177.199 56.5065,178.866 57,180.5C 60.716,185.599 62.8827,191.266 63.5,197.5C 63.1667,197.5 62.8333,197.5 62.5,197.5C 59.7363,190.316 56.7363,183.316 53.5,176.5 Z"/></g>
<g><path style="opacity:1" fill="#dd9d43" d="M 224.5,175.5 C 224.34,177.199 224.506,178.866 225,180.5C 225.333,180.167 225.667,179.833 226,179.5C 226.18,181.488 226.014,183.488 225.5,185.5C 224.178,185.33 223.011,185.663 222,186.5C 221.033,188.63 219.866,190.63 218.5,192.5C 218.543,193.416 218.876,194.083 219.5,194.5C 219.781,199.997 218.447,200.664 215.5,196.5C 218.327,189.33 221.327,182.33 224.5,175.5 Z"/></g>
<g><path style="opacity:1" fill="#fcf3d9" d="M 53.5,176.5 C 56.7363,183.316 59.7363,190.316 62.5,197.5C 61.391,197.443 60.391,197.11 59.5,196.5C 56.929,190.019 54.929,183.353 53.5,176.5 Z"/></g>
<g><path style="opacity:1" fill="#fdb549" d="M 75.5,175.5 C 75.3359,178.187 75.5026,180.854 76,183.5C 77.3333,184.167 78.3333,185.167 79,186.5C 80.5319,193.902 83.8653,200.236 89,205.5C 89.4955,207.473 89.6621,209.473 89.5,211.5C 91.433,211.729 93.0997,212.562 94.5,214C 97,217.833 100.167,221 104,223.5C 104.49,224.793 104.657,226.127 104.5,227.5C 99.7465,226.241 95.0799,224.741 90.5,223C 89.8534,221.391 89.02,219.891 88,218.5C 87.6667,218.833 87.3333,219.167 87,219.5C 85.4645,216.706 83.2978,214.706 80.5,213.5C 80.2148,211.712 80.5481,210.045 81.5,208.5C 82.3059,211.362 83.6393,211.862 85.5,210C 82.9586,208.152 81.9586,205.652 82.5,202.5C 79.9505,202.561 78.4505,203.894 78,206.5C 78.4339,202.548 78.4339,198.548 78,194.5C 76.2365,195.944 74.2365,196.944 72,197.5C 71.8078,195.423 71.3078,193.423 70.5,191.5C 67.6658,189.559 66.8325,186.893 68,183.5C 69.7658,181.404 71.0991,179.071 72,176.5C 73.0113,175.663 74.1779,175.33 75.5,175.5 Z"/></g>
<g><path style="opacity:1" fill="#fed994" d="M 77.5,175.5 C 81.8606,181.593 85.5272,188.26 88.5,195.5C 91.8647,198.852 93.8647,202.852 94.5,207.5C 93.5041,207.586 92.6708,207.252 92,206.5C 88.465,199.283 84.465,192.283 80,185.5C 79.4666,182.071 78.6332,178.738 77.5,175.5 Z"/></g>
<g><path style="opacity:1" fill="#fcf9ec" d="M 232.5,180.5 C 233.715,184.379 235.382,188.045 237.5,191.5C 236.167,191.5 234.833,191.5 233.5,191.5C 233.263,188.353 232.43,185.353 231,182.5C 228.816,186.888 227.316,191.555 226.5,196.5C 225.264,197.246 223.93,197.579 222.5,197.5C 223.167,195.5 223.833,193.5 224.5,191.5C 226.551,188.342 228.217,185.008 229.5,181.5C 230.391,180.89 231.391,180.557 232.5,180.5 Z"/></g>
<g><path style="opacity:1" fill="#f5b758" d="M 75.5,175.5 C 76.1667,175.5 76.8333,175.5 77.5,175.5C 78.6332,178.738 79.4666,182.071 80,185.5C 84.465,192.283 88.465,199.283 92,206.5C 92.6708,207.252 93.5041,207.586 94.5,207.5C 98.3574,214.033 103.357,219.7 109.5,224.5C 110.794,226.907 112.461,229.074 114.5,231C 120.354,235.092 126.354,238.925 132.5,242.5C 135.093,244.935 138.093,246.602 141.5,247.5C 139.181,248.167 136.847,248.334 134.5,248C 131.789,245.323 128.789,243.156 125.5,241.5C 119.057,236.068 112.057,231.401 104.5,227.5C 104.657,226.127 104.49,224.793 104,223.5C 100.167,221 97,217.833 94.5,214C 93.0997,212.562 91.433,211.729 89.5,211.5C 89.6621,209.473 89.4955,207.473 89,205.5C 83.8653,200.236 80.5319,193.902 79,186.5C 78.3333,185.167 77.3333,184.167 76,183.5C 75.5026,180.854 75.3359,178.187 75.5,175.5 Z"/></g>
<g><path style="opacity:1" fill="#ce9c50" d="M 224.5,191.5 C 223.833,193.5 223.167,195.5 222.5,197.5C 220.5,200.833 218.5,204.167 216.5,207.5C 216.167,207.5 215.833,207.5 215.5,207.5C 214.833,204.833 214.167,202.167 213.5,199.5C 213.285,197.821 213.952,196.821 215.5,196.5C 218.447,200.664 219.781,199.997 219.5,194.5C 219.905,193.45 220.571,193.45 221.5,194.5C 222.141,193.007 223.141,192.007 224.5,191.5 Z"/></g>
<g><path style="opacity:1" fill="#c9a26a" d="M 63.5,197.5 C 67.0633,199.261 68.8966,202.261 69,206.5C 73.8743,212.257 77.7076,218.59 80.5,225.5C 80.1667,225.5 79.8333,225.5 79.5,225.5C 77.6465,221.779 75.3131,218.446 72.5,215.5C 68.9883,209.81 65.9883,203.81 63.5,197.5 Z"/></g>
<g><path style="opacity:1" fill="#fbf9ee" d="M 59.5,196.5 C 60.391,197.11 61.391,197.443 62.5,197.5C 62.8333,197.5 63.1667,197.5 63.5,197.5C 65.9883,203.81 68.9883,209.81 72.5,215.5C 71.8501,215.196 71.1835,214.863 70.5,214.5C 69.5,215.833 68.5,217.167 67.5,218.5C 66.9627,215.137 66.6294,211.803 66.5,208.5C 65.5009,212.237 64.1675,212.237 62.5,208.5C 60.9547,207.548 59.288,207.215 57.5,207.5C 57.5,206.167 57.5,204.833 57.5,203.5C 59.604,203.799 61.604,203.466 63.5,202.5C 62.4737,200.169 61.1403,198.169 59.5,196.5 Z"/></g>
<g><path style="opacity:1" fill="#fdf4da" d="M 216.5,208.5 C 215.595,213.698 213.428,218.364 210,222.5C 209.184,223.823 208.017,224.489 206.5,224.5C 209.472,218.878 212.805,213.545 216.5,208.5 Z"/></g>
<g><path style="opacity:1" fill="#c8a265" d="M 80.5,226.5 C 86.3818,229.992 90.7151,234.992 93.5,241.5C 90.4728,239.14 87.8062,236.473 85.5,233.5C 84.0787,230.991 82.4121,228.657 80.5,226.5 Z"/></g>
<g><path style="opacity:1" fill="#fbb54e" d="M 80.5,213.5 C 83.2978,214.706 85.4645,216.706 87,219.5C 87.3333,219.167 87.6667,218.833 88,218.5C 89.02,219.891 89.8534,221.391 90.5,223C 95.0799,224.741 99.7465,226.241 104.5,227.5C 112.057,231.401 119.057,236.068 125.5,241.5C 124.265,241.721 123.265,242.388 122.5,243.5C 120.809,241.744 118.809,241.244 116.5,242C 113.574,242.687 112.241,244.52 112.5,247.5C 119.152,248.152 122.819,251.819 123.5,258.5C 125.099,258.232 126.432,258.566 127.5,259.5C 125.801,259.66 124.134,259.494 122.5,259C 118.452,255.284 114.118,251.95 109.5,249C 105.573,244.565 101.24,240.732 96.5,237.5C 96.5086,235.692 96.0086,234.025 95,232.5C 88.6942,227.189 83.8609,220.856 80.5,213.5 Z"/></g>
<g><path style="opacity:1" fill="#c2995e" d="M 215.5,207.5 C 215.833,207.5 216.167,207.5 216.5,207.5C 216.5,207.833 216.5,208.167 216.5,208.5C 212.805,213.545 209.472,218.878 206.5,224.5C 201.872,230.463 196.872,236.13 191.5,241.5C 200.39,230.933 208.39,219.6 215.5,207.5 Z"/></g>
<g><path style="opacity:1" fill="#fcf2d7" d="M 85.5,233.5 C 87.8062,236.473 90.4728,239.14 93.5,241.5C 93.8333,242.5 94.5,243.167 95.5,243.5C 96.4735,246.135 98.1402,248.135 100.5,249.5C 99.448,249.649 98.448,249.483 97.5,249C 94.5792,245.242 91.2459,242.075 87.5,239.5C 86.6373,237.579 85.9707,235.579 85.5,233.5 Z"/></g>
<g><path style="opacity:1" fill="#fbfdf6" d="M 79.5,225.5 C 79.8333,225.5 80.1667,225.5 80.5,225.5C 80.5,225.833 80.5,226.167 80.5,226.5C 82.4121,228.657 84.0787,230.991 85.5,233.5C 85.9707,235.579 86.6373,237.579 87.5,239.5C 85.8911,241.601 85.3911,243.935 86,246.5C 88.6131,248.401 90.2797,250.735 91,253.5C 86.6937,250.395 83.1937,251.062 80.5,255.5C 79.1667,253.5 79.1667,251.5 80.5,249.5C 82.1667,248.5 83.5,247.167 84.5,245.5C 81.7661,242.211 79.7661,238.545 78.5,234.5C 80.6248,231.724 80.9581,228.724 79.5,225.5 Z"/></g>
<g><path style="opacity:1" fill="#fbefd9" d="M 206.5,224.5 C 204.49,228.03 202.656,231.696 201,235.5C 197.456,237.039 195.456,239.706 195,243.5C 190.591,245.904 186.757,249.071 183.5,253C 182.552,253.483 181.552,253.649 180.5,253.5C 182.167,251.5 183.833,249.5 185.5,247.5C 187.452,246.215 189.118,244.549 190.5,242.5C 191.167,242.5 191.5,242.167 191.5,241.5C 196.872,236.13 201.872,230.463 206.5,224.5 Z"/></g>
<g><path style="opacity:1" fill="#c29d5b" d="M 190.5,242.5 C 189.118,244.549 187.452,246.215 185.5,247.5C 185.5,244.167 187.167,242.5 190.5,242.5 Z"/></g>
<g><path style="opacity:1" fill="#c8a267" d="M 95.5,243.5 C 97.1667,243.5 98.8333,243.5 100.5,243.5C 100.343,244.873 100.51,246.207 101,247.5C 104.184,249.544 106.684,252.21 108.5,255.5C 108.167,255.5 107.833,255.5 107.5,255.5C 105.142,253.471 102.808,251.471 100.5,249.5C 98.1402,248.135 96.4735,246.135 95.5,243.5 Z"/></g>
<g><path style="opacity:1" fill="#bf9957" d="M 185.5,247.5 C 183.833,249.5 182.167,251.5 180.5,253.5C 179.833,253.833 179.167,254.167 178.5,254.5C 179.167,250.5 181.5,248.167 185.5,247.5 Z"/></g>
<g><path style="opacity:1" fill="#c7a569" d="M 111.5,258.5 C 115.202,258.226 117.535,259.892 118.5,263.5C 115.883,262.214 113.55,260.547 111.5,258.5 Z"/></g>
<g><path style="opacity:1" fill="#fbf6d9" d="M 107.5,255.5 C 107.833,255.5 108.167,255.5 108.5,255.5C 109.167,256.833 110.167,257.833 111.5,258.5C 113.55,260.547 115.883,262.214 118.5,263.5C 118.833,264.167 119.167,264.833 119.5,265.5C 118.07,265.579 116.736,265.246 115.5,264.5C 114.076,262.282 112.076,260.782 109.5,260C 108.418,258.67 107.751,257.17 107.5,255.5 Z"/></g>
<g><path style="opacity:1" fill="#d99d46" d="M 213.5,199.5 C 214.167,202.167 214.833,204.833 215.5,207.5C 208.39,219.6 200.39,230.933 191.5,241.5C 191.5,242.167 191.167,242.5 190.5,242.5C 187.167,242.5 185.5,244.167 185.5,247.5C 181.5,248.167 179.167,250.5 178.5,254.5C 175.403,257.888 171.736,260.555 167.5,262.5C 160.076,266.074 152.743,269.907 145.5,274C 142.073,275.166 139.407,274.332 137.5,271.5C 134.22,270.221 131.887,267.887 130.5,264.5C 134.094,266.927 138.094,268.593 142.5,269.5C 174.2,254.132 197.867,230.799 213.5,199.5 Z"/></g>
<g><path style="opacity:1" fill="#fcf4df" d="M 180.5,253.5 C 180.435,255.696 179.768,257.696 178.5,259.5C 173.398,261.247 168.731,263.581 164.5,266.5C 164.5,267.5 164.5,268.5 164.5,269.5C 162.833,269.5 161.167,269.5 159.5,269.5C 162.167,267.167 164.833,264.833 167.5,262.5C 171.736,260.555 175.403,257.888 178.5,254.5C 179.167,254.167 179.833,253.833 180.5,253.5 Z"/></g>
<g><path style="opacity:1" fill="#d29f53" d="M 118.5,263.5 C 121.518,263.506 124.184,264.506 126.5,266.5C 127.524,265.147 128.857,264.48 130.5,264.5C 131.887,267.887 134.22,270.221 137.5,271.5C 133.519,269.398 129.185,268.064 124.5,267.5C 122.833,266.833 121.167,266.167 119.5,265.5C 119.167,264.833 118.833,264.167 118.5,263.5 Z"/></g>
<g><path style="opacity:1" fill="#c6a067" d="M 167.5,262.5 C 164.833,264.833 162.167,267.167 159.5,269.5C 153.721,272.208 147.721,274.541 141.5,276.5C 135.086,274.715 129.419,271.715 124.5,267.5C 129.185,268.064 133.519,269.398 137.5,271.5C 139.407,274.332 142.073,275.166 145.5,274C 152.743,269.907 160.076,266.074 167.5,262.5 Z"/></g>
<g><path style="opacity:1" fill="#fdf8e5" d="M 119.5,265.5 C 121.167,266.167 122.833,266.833 124.5,267.5C 129.419,271.715 135.086,274.715 141.5,276.5C 147.721,274.541 153.721,272.208 159.5,269.5C 158.952,272.084 157.285,273.084 154.5,272.5C 154.5,273.833 154.5,275.167 154.5,276.5C 147.856,277.443 141.189,277.609 134.5,277C 130.717,276.446 128.05,274.446 126.5,271C 124.527,270.505 122.527,270.338 120.5,270.5C 120.371,268.784 120.038,267.117 119.5,265.5 Z"/></g>
</svg>
