<?xml version="1.0" encoding="UTF-8"?>
<!DOCTYPE svg PUBLIC "-//W3C//DTD SVG 1.1//EN" "http://www.w3.org/Graphics/SVG/1.1/DTD/svg11.dtd">
<svg xmlns="http://www.w3.org/2000/svg" version="1.1" width="322px" height="235px" style="shape-rendering:geometricPrecision; text-rendering:geometricPrecision; image-rendering:optimizeQuality; fill-rule:evenodd; clip-rule:evenodd" xmlns:xlink="http://www.w3.org/1999/xlink">
<g><path style="opacity:1" fill="#cb2b3e" d="M 157.5,-0.5 C 159.167,-0.5 160.833,-0.5 162.5,-0.5C 163.219,1.76375 163.552,4.09709 163.5,6.5C 170.527,6.16395 177.527,5.49728 184.5,4.5C 188.609,5.1938 192.609,6.1938 196.5,7.5C 196.827,17.6806 196.494,27.6806 195.5,37.5C 192.512,34.5085 188.845,32.8418 184.5,32.5C 177.579,33.9934 170.579,34.6601 163.5,34.5C 163.5,38.5 163.5,42.5 163.5,46.5C 233.312,51.8065 282.145,86.4732 310,150.5C 314.899,163.097 318.066,176.097 319.5,189.5C 319.335,192.518 319.502,195.518 320,198.5C 320.383,199.056 320.883,199.389 321.5,199.5C 321.5,205.5 321.5,211.5 321.5,217.5C 275.5,217.5 229.5,217.5 183.5,217.5C 183.5,186.833 183.5,156.167 183.5,125.5C 167.833,125.5 152.167,125.5 136.5,125.5C 136.5,156.167 136.5,186.833 136.5,217.5C 90.8333,217.5 45.1667,217.5 -0.5,217.5C -0.5,210.833 -0.5,204.167 -0.5,197.5C 1.56902,175.906 7.40236,155.24 17,135.5C 47.1247,80.5026 93.6247,50.836 156.5,46.5C 156.229,30.8048 156.563,15.1381 157.5,-0.5 Z"/></g>
</svg>