<?xml version="1.0" encoding="UTF-8"?>
<!DOCTYPE svg PUBLIC "-//W3C//DTD SVG 1.1//EN" "http://www.w3.org/Graphics/SVG/1.1/DTD/svg11.dtd">
<svg xmlns="http://www.w3.org/2000/svg" version="1.1" width="266px" height="266px" style="shape-rendering:geometricPrecision; text-rendering:geometricPrecision; image-rendering:optimizeQuality; fill-rule:evenodd; clip-rule:evenodd" xmlns:xlink="http://www.w3.org/1999/xlink">
<g><path style="opacity:1" fill="#251c34" d="M 117.5,-0.5 C 120.5,-0.5 123.5,-0.5 126.5,-0.5C 126.819,1.7505 126.319,3.7505 125,5.5C 124.275,3.84202 123.108,3.34202 121.5,4C 121.833,4.33333 122.167,4.66667 122.5,5C 117.118,5.30732 111.785,5.97399 106.5,7C 118.11,8.24607 129.776,8.91273 141.5,9C 143.506,9.08263 144.506,9.58263 144.5,10.5C 136.16,10.3336 127.827,10.5003 119.5,11C 111.424,12.1866 103.424,13.6866 95.5,15.5C 98.379,12.7092 101.712,10.3759 105.5,8.5C 103.744,6.83516 101.577,5.83516 99,5.5C 95.9449,6.61052 93.1116,8.11052 90.5,10C 87.8333,10.3333 85.1667,10.6667 82.5,11C 80.6969,11.6368 79.3636,12.8035 78.5,14.5C 73.9332,15.0091 70.2665,17.0091 67.5,20.5C 65.0182,21.8972 62.3516,22.7306 59.5,23C 56.8336,25.1448 54.8336,27.6448 53.5,30.5C 50.9752,31.64 48.3085,32.3067 45.5,32.5C 66.2222,14.4741 90.2222,3.47414 117.5,-0.5 Z"/></g>
<g><path style="opacity:1" fill="#261a39" d="M 126.5,-0.5 C 132.833,-0.5 139.167,-0.5 145.5,-0.5C 164.942,2.4257 183.275,8.75904 200.5,18.5C 200.511,20.0174 201.177,21.1841 202.5,22C 207.691,26.0896 213.025,29.9229 218.5,33.5C 220.167,37.8333 218.833,39.1667 214.5,37.5C 213.014,35.6984 212.014,33.6984 211.5,31.5C 201.291,30.0636 192.291,25.897 184.5,19C 182.167,18.6667 179.833,18.3333 177.5,18C 167.735,12.729 157.401,10.5624 146.5,11.5C 145.508,11.6716 144.842,11.3382 144.5,10.5C 144.506,9.58263 143.506,9.08263 141.5,9C 129.776,8.91273 118.11,8.24607 106.5,7C 111.785,5.97399 117.118,5.30732 122.5,5C 122.167,4.66667 121.833,4.33333 121.5,4C 123.108,3.34202 124.275,3.84202 125,5.5C 126.319,3.7505 126.819,1.7505 126.5,-0.5 Z"/></g>
<g><path style="opacity:1" fill="#e8e8e8" d="M 144.5,10.5 C 144.842,11.3382 145.508,11.6716 146.5,11.5C 150.86,12.0067 155.193,12.6734 159.5,13.5C 222.755,47.023 246.921,99.023 232,169.5C 220.004,206.821 196.171,233.321 160.5,249C 161.416,249.278 162.082,249.778 162.5,250.5C 158.217,251.624 153.884,252.624 149.5,253.5C 94.6933,258.348 53.1933,237.348 25,190.5C 9.41927,160.09 6.2526,128.423 15.5,95.5C 17.8742,90.7234 19.8742,85.7234 21.5,80.5C 38.0441,49.6247 62.7108,27.9581 95.5,15.5C 103.424,13.6866 111.424,12.1866 119.5,11C 127.827,10.5003 136.16,10.3336 144.5,10.5 Z"/></g>
<g><path style="opacity:1" fill="#261a3a" d="M 95.5,15.5 C 87.8679,17.1507 80.5345,19.6507 73.5,23C 70.1738,24.2925 67.1738,26.6258 64.5,30C 62.3225,31.2022 59.9892,31.7022 57.5,31.5C 56.8732,35.4603 54.5399,37.7936 50.5,38.5C 48.7977,41.7166 46.4644,44.5499 43.5,47C 39.736,47.4591 37.9026,49.6257 38,53.5C 36.2552,54.9557 34.4219,56.289 32.5,57.5C 28.5696,65.0279 24.9029,72.6946 21.5,80.5C 19.8742,85.7234 17.8742,90.7234 15.5,95.5C 14.5272,96.7914 13.5272,96.7914 12.5,95.5C 11.8076,96.0253 11.3076,96.6919 11,97.5C 10.2797,95.8876 10.4464,94.3876 11.5,93C 10.4258,92.2613 9.75908,91.2613 9.5,90C 11.0909,85.1593 12.5909,80.326 14,75.5C 17.6784,70.5132 20.6784,65.1798 23,59.5C 27.7343,55.5556 31.5677,50.889 34.5,45.5C 36.9579,43.3506 39.6246,41.6839 42.5,40.5C 42.5,39.1667 42.5,37.8333 42.5,36.5C 43.5,36.5 44.5,36.5 45.5,36.5C 45.7373,35.209 45.404,34.209 44.5,33.5C 44.5,32.8333 44.8333,32.5 45.5,32.5C 48.3085,32.3067 50.9752,31.64 53.5,30.5C 54.8336,27.6448 56.8336,25.1448 59.5,23C 62.3516,22.7306 65.0182,21.8972 67.5,20.5C 70.2665,17.0091 73.9332,15.0091 78.5,14.5C 79.3636,12.8035 80.6969,11.6368 82.5,11C 85.1667,10.6667 87.8333,10.3333 90.5,10C 93.1116,8.11052 95.9449,6.61052 99,5.5C 101.577,5.83516 103.744,6.83516 105.5,8.5C 101.712,10.3759 98.379,12.7092 95.5,15.5 Z"/></g>
<g><path style="opacity:1" fill="#1c1727" d="M 95.5,15.5 C 62.7108,27.9581 38.0441,49.6247 21.5,80.5C 24.9029,72.6946 28.5696,65.0279 32.5,57.5C 34.4219,56.289 36.2552,54.9557 38,53.5C 37.9026,49.6257 39.736,47.4591 43.5,47C 46.4644,44.5499 48.7977,41.7166 50.5,38.5C 54.5399,37.7936 56.8732,35.4603 57.5,31.5C 59.9892,31.7022 62.3225,31.2022 64.5,30C 67.1738,26.6258 70.1738,24.2925 73.5,23C 80.5345,19.6507 87.8679,17.1507 95.5,15.5 Z"/></g>
<g><path style="opacity:1" fill="#231b35" d="M 146.5,11.5 C 157.401,10.5624 167.735,12.729 177.5,18C 179.833,18.3333 182.167,18.6667 184.5,19C 192.291,25.897 201.291,30.0636 211.5,31.5C 212.014,33.6984 213.014,35.6984 214.5,37.5C 218.833,39.1667 220.167,37.8333 218.5,33.5C 213.025,29.9229 207.691,26.0896 202.5,22C 201.177,21.1841 200.511,20.0174 200.5,18.5C 217.096,28.4296 230.763,41.4296 241.5,57.5C 239.608,56.2983 237.774,54.965 236,53.5C 234.792,55.4788 233.959,57.6454 233.5,60C 236.95,65.3157 240.283,70.8157 243.5,76.5C 244.432,77.9798 244.432,79.3131 243.5,80.5C 242.167,78.5 240.833,76.5 239.5,74.5C 221.791,42.622 195.124,22.2887 159.5,13.5C 155.193,12.6734 150.86,12.0067 146.5,11.5 Z"/></g>
<g><path style="opacity:1" fill="#2a1e3d" d="M 157.5,58.5 C 159.89,60.7339 161.724,63.4006 163,66.5C 163.5,79.1623 163.667,91.8289 163.5,104.5C 176.011,104.171 188.345,104.505 200.5,105.5C 188.495,105.333 176.495,105.5 164.5,106C 167.471,106.794 170.471,107.461 173.5,108C 171.377,109.194 169.043,109.86 166.5,110C 175.282,110.866 183.948,111.866 192.5,113C 180.5,113.667 168.5,113.667 156.5,113C 155.874,112.25 155.374,111.416 155,110.5C 154.501,105.511 154.334,100.511 154.5,95.5C 155.5,95.5 156.5,95.5 157.5,95.5C 157.666,90.1563 157.499,84.8229 157,79.5C 156.333,78.8333 155.667,78.1667 155,77.5C 154.809,75.2922 154.309,73.2922 153.5,71.5C 153.919,68.6755 152.919,66.5088 150.5,65C 138.326,64.1737 126.326,64.3403 114.5,65.5C 114.167,65.5 113.833,65.5 113.5,65.5C 112.178,65.67 111.011,65.3366 110,64.5C 109.434,80.8411 109.6,97.1744 110.5,113.5C 108.143,113.663 105.81,113.497 103.5,113C 107.5,112.333 107.5,111.667 103.5,111C 104.684,109.82 105.351,108.32 105.5,106.5C 104.569,92.1857 104.236,77.8524 104.5,63.5C 107.094,61.6385 109.427,59.9719 111.5,58.5C 126.997,57.3609 142.33,57.3609 157.5,58.5 Z"/></g>
<g><path style="opacity:1" fill="#7d3b47" d="M 113.5,65.5 C 113.833,65.5 114.167,65.5 114.5,65.5C 126.345,65.1717 138.012,65.5051 149.5,66.5C 137.655,66.1717 125.988,66.5051 114.5,67.5C 114.167,67.5 113.833,67.5 113.5,67.5C 113.5,66.8333 113.5,66.1667 113.5,65.5 Z"/></g>
<g><path style="opacity:1" fill="#c47477" d="M 114.5,67.5 C 125.988,66.5051 137.655,66.1717 149.5,66.5C 150.458,66.9528 151.292,67.6195 152,68.5C 152.333,83.5 152.667,98.5 153,113.5C 153.5,114 154,114.5 154.5,115C 169.672,115.169 184.672,115.669 199.5,116.5C 184.833,116.5 170.167,116.5 155.5,116.5C 153.629,116.141 152.129,115.141 151,113.5C 150.667,98.5 150.333,83.5 150,68.5C 138.247,67.5118 126.414,67.1785 114.5,67.5 Z"/></g>
<g><path style="opacity:1" fill="#f27a6b" d="M 114.5,67.5 C 126.414,67.1785 138.247,67.5118 150,68.5C 150.333,83.5 150.667,98.5 151,113.5C 152.129,115.141 153.629,116.141 155.5,116.5C 169.994,117.331 184.661,117.831 199.5,118C 200.815,128.958 200.815,139.958 199.5,151C 199.095,151.945 198.428,152.612 197.5,153C 183.167,153.333 168.833,153.667 154.5,154C 153,154.833 151.833,156 151,157.5C 150.667,172.167 150.333,186.833 150,201.5C 149.5,202 149,202.5 148.5,203C 137.659,203.17 126.992,203.67 116.5,204.5C 115.508,204.672 114.842,204.338 114.5,203.5C 114.667,187.83 114.5,172.163 114,156.5C 112.812,155.437 112.312,154.103 112.5,152.5C 96.4788,152.738 80.4788,152.404 64.5,151.5C 64.5,140.167 64.5,128.833 64.5,117.5C 80.5956,117.97 96.5956,117.47 112.5,116C 113,115.5 113.5,115 114,114.5C 114.5,98.8369 114.667,83.1702 114.5,67.5 Z"/></g>
<g><path style="opacity:1" fill="#231e30" d="M 241.5,57.5 C 253.696,73.3996 261.029,91.3996 263.5,111.5C 263.307,115.449 262.807,115.449 262,111.5C 260.316,106.863 259.316,102.196 259,97.5C 258.29,96.0267 257.124,95.3601 255.5,95.5C 255.665,91.8183 255.499,88.1516 255,84.5C 249.783,75.8044 245.283,66.8044 241.5,57.5 Z"/></g>
<g><path style="opacity:1" fill="#b9cccc" d="M 159.5,13.5 C 195.124,22.2887 221.791,42.622 239.5,74.5C 239.239,80.3535 241.073,85.3535 245,89.5C 245.403,92.7084 246.403,95.7084 248,98.5C 248.453,105.668 249.62,112.668 251.5,119.5C 251.659,123.66 250.992,127.66 249.5,131.5C 250.877,144.175 250.043,156.509 247,168.5C 246.667,168.167 246.333,167.833 246,167.5C 244.833,169.333 243.667,171.167 242.5,173C 243.034,176.398 243.034,179.898 242.5,183.5C 231.804,207.864 214.804,226.531 191.5,239.5C 182.171,244.164 172.505,247.83 162.5,250.5C 162.082,249.778 161.416,249.278 160.5,249C 196.171,233.321 220.004,206.821 232,169.5C 246.921,99.023 222.755,47.023 159.5,13.5 Z"/></g>
<g><path style="opacity:1" fill="#d27878" d="M 113.5,67.5 C 113.833,67.5 114.167,67.5 114.5,67.5C 114.667,83.1702 114.5,98.8369 114,114.5C 113.5,115 113,115.5 112.5,116C 96.5956,117.47 80.5956,117.97 64.5,117.5C 64.6107,116.883 64.944,116.383 65.5,116C 80.1629,115.5 94.8295,115.333 109.5,115.5C 111.093,114.652 112.26,113.319 113,111.5C 113.5,96.8371 113.667,82.1705 113.5,67.5 Z"/></g>
<g><path style="opacity:1" fill="#817a8c" d="M 102.5,67.5 C 102.5,80.1667 102.5,92.8333 102.5,105.5C 89.5,105.5 76.5,105.5 63.5,105.5C 75.989,104.505 88.6557,104.171 101.5,104.5C 101.171,91.9887 101.505,79.6554 102.5,67.5 Z"/></g>
<g><path style="opacity:1" fill="#271933" d="M 157.5,58.5 C 142.33,57.3609 126.997,57.3609 111.5,58.5C 109.427,59.9719 107.094,61.6385 104.5,63.5C 104.236,77.8524 104.569,92.1857 105.5,106.5C 105.351,108.32 104.684,109.82 103.5,111C 107.5,111.667 107.5,112.333 103.5,113C 105.81,113.497 108.143,113.663 110.5,113.5C 109.6,97.1744 109.434,80.8411 110,64.5C 111.011,65.3366 112.178,65.67 113.5,65.5C 113.5,66.1667 113.5,66.8333 113.5,67.5C 113.667,82.1705 113.5,96.8371 113,111.5C 112.26,113.319 111.093,114.652 109.5,115.5C 94.676,114.504 79.676,114.171 64.5,114.5C 74.6745,113.833 85.0078,113.167 95.5,112.5C 84.8333,111.833 74.1667,111.167 63.5,110.5C 62.7112,108.512 61.5445,108.179 60,109.5C 58,112.833 56,116.167 54,119.5C 53.3333,127.5 53.3333,135.5 54,143.5C 56.6468,149.151 58.1468,155.151 58.5,161.5C 60.3904,161.297 61.8904,161.963 63,163.5C 66.3333,162.833 69.6667,162.167 73,161.5C 79.6667,161.5 86.3333,161.5 93,161.5C 95.0693,162.264 97.236,162.764 99.5,163C 100.252,163.671 100.586,164.504 100.5,165.5C 88.8333,165.5 77.1667,165.5 65.5,165.5C 59.4296,164.601 55.263,161.268 53,155.5C 52.3333,141.833 52.3333,128.167 53,114.5C 55.0049,109.749 58.5049,106.749 63.5,105.5C 76.5,105.5 89.5,105.5 102.5,105.5C 102.5,92.8333 102.5,80.1667 102.5,67.5C 103.462,62.0785 106.462,58.2452 111.5,56C 125.5,55.3333 139.5,55.3333 153.5,56C 155.066,56.6082 156.4,57.4415 157.5,58.5 Z"/></g>
<g><path style="opacity:1" fill="#300f1c" d="M 114.5,65.5 C 126.326,64.3403 138.326,64.1737 150.5,65C 152.919,66.5088 153.919,68.6755 153.5,71.5C 153.333,85.1707 153.5,98.8374 154,112.5C 154.5,113 155,113.5 155.5,114C 170.833,114.333 186.167,114.667 201.5,115C 202.98,117.247 203.647,119.747 203.5,122.5C 202.97,132.331 202.303,141.998 201.5,151.5C 201.667,140.162 201.5,128.828 201,117.5C 200.617,116.944 200.117,116.611 199.5,116.5C 184.672,115.669 169.672,115.169 154.5,115C 154,114.5 153.5,114 153,113.5C 152.667,98.5 152.333,83.5 152,68.5C 151.292,67.6195 150.458,66.9528 149.5,66.5C 138.012,65.5051 126.345,65.1717 114.5,65.5 Z"/></g>
<g><path style="opacity:1" fill="#281935" d="M 153.5,71.5 C 154.309,73.2922 154.809,75.2922 155,77.5C 155.667,78.1667 156.333,78.8333 157,79.5C 157.499,84.8229 157.666,90.1563 157.5,95.5C 156.5,95.5 155.5,95.5 154.5,95.5C 154.334,100.511 154.501,105.511 155,110.5C 155.374,111.416 155.874,112.25 156.5,113C 168.5,113.667 180.5,113.667 192.5,113C 183.948,111.866 175.282,110.866 166.5,110C 169.043,109.86 171.377,109.194 173.5,108C 170.471,107.461 167.471,106.794 164.5,106C 176.495,105.5 188.495,105.333 200.5,105.5C 207.048,106.381 211.048,110.048 212.5,116.5C 211.669,128.993 211.169,141.66 211,154.5C 209.807,156.886 208.64,159.22 207.5,161.5C 206.833,162.833 205.833,163.833 204.5,164.5C 191.376,164.414 178.043,164.414 164.5,164.5C 167.034,162.421 170.034,161.087 173.5,160.5C 175.187,160.76 176.687,161.427 178,162.5C 182,162.5 186,162.5 190,162.5C 190.739,161.426 191.739,160.759 193,160.5C 195.627,161.323 198.294,161.99 201,162.5C 202.326,162.245 203.326,161.578 204,160.5C 205.716,161.552 206.716,160.886 207,158.5C 208.58,144.865 209.247,131.198 209,117.5C 207.706,116.146 207.54,114.812 208.5,113.5C 208.167,112.5 207.5,111.833 206.5,111.5C 205.639,127.58 205.306,143.58 205.5,159.5C 189.273,157.457 172.94,156.957 156.5,158C 156.371,169.118 156.371,180.285 156.5,191.5C 155.682,194.107 155.182,196.774 155,199.5C 154.425,202.286 152.925,204.286 150.5,205.5C 150.5,205.167 150.5,204.833 150.5,204.5C 150.833,203.833 151.167,203.167 151.5,202.5C 152.222,202.082 152.722,201.416 153,200.5C 153.333,186.5 153.667,172.5 154,158.5C 154.5,158 155,157.5 155.5,157C 170.867,157.154 185.867,156.321 200.5,154.5C 201.11,153.609 201.443,152.609 201.5,151.5C 202.303,141.998 202.97,132.331 203.5,122.5C 203.647,119.747 202.98,117.247 201.5,115C 186.167,114.667 170.833,114.333 155.5,114C 155,113.5 154.5,113 154,112.5C 153.5,98.8374 153.333,85.1707 153.5,71.5 Z"/></g>
<g><path style="opacity:1" fill="#271a39" d="M 241.5,57.5 C 245.283,66.8044 249.783,75.8044 255,84.5C 255.499,88.1516 255.665,91.8183 255.5,95.5C 257.124,95.3601 258.29,96.0267 259,97.5C 259.316,102.196 260.316,106.863 262,111.5C 262.807,115.449 263.307,115.449 263.5,111.5C 264.167,113.833 264.833,116.167 265.5,118.5C 265.5,127.833 265.5,137.167 265.5,146.5C 264.833,147.833 264.167,149.167 263.5,150.5C 263.565,150.062 263.399,149.728 263,149.5C 260.527,155.394 258.36,161.394 256.5,167.5C 255.478,168.354 254.645,169.354 254,170.5C 252.113,164.114 252.447,157.781 255,151.5C 255.384,137.434 255.551,123.434 255.5,109.5C 255.195,106.724 254.195,104.224 252.5,102C 252.833,101.667 253.167,101.333 253.5,101C 252.545,97.9006 251.711,94.734 251,91.5C 250.25,90.8742 249.416,90.3742 248.5,90C 249.694,87.3422 248.694,86.1756 245.5,86.5C 244.637,84.5786 243.971,82.5786 243.5,80.5C 244.432,79.3131 244.432,77.9798 243.5,76.5C 240.283,70.8157 236.95,65.3157 233.5,60C 233.959,57.6454 234.792,55.4788 236,53.5C 237.774,54.965 239.608,56.2983 241.5,57.5 Z"/></g>
<g><path style="opacity:1" fill="#0d0417" d="M 212.5,116.5 C 212.667,129.504 212.5,142.504 212,155.5C 211.208,158.106 209.708,160.106 207.5,161.5C 208.64,159.22 209.807,156.886 211,154.5C 211.169,141.66 211.669,128.993 212.5,116.5 Z"/></g>
<g><path style="opacity:1" fill="#bcc8d0" d="M 239.5,74.5 C 240.833,76.5 242.167,78.5 243.5,80.5C 243.971,82.5786 244.637,84.5786 245.5,86.5C 256.168,113.695 257.335,141.362 249,169.5C 247.488,174.567 245.321,179.233 242.5,183.5C 243.034,179.898 243.034,176.398 242.5,173C 243.667,171.167 244.833,169.333 246,167.5C 246.333,167.833 246.667,168.167 247,168.5C 250.043,156.509 250.877,144.175 249.5,131.5C 250.992,127.66 251.659,123.66 251.5,119.5C 249.62,112.668 248.453,105.668 248,98.5C 246.403,95.7084 245.403,92.7084 245,89.5C 241.073,85.3535 239.239,80.3535 239.5,74.5 Z"/></g>
<g><path style="opacity:1" fill="#080215" d="M 204.5,164.5 C 203.167,164.833 201.833,165.167 200.5,165.5C 187.833,165.5 175.167,165.5 162.5,165.5C 162.5,177.833 162.5,190.167 162.5,202.5C 162.482,205.921 161.149,208.588 158.5,210.5C 159.511,208.628 160.345,206.628 161,204.5C 161.5,191.171 161.667,177.837 161.5,164.5C 162.5,164.5 163.5,164.5 164.5,164.5C 178.043,164.414 191.376,164.414 204.5,164.5 Z"/></g>
<g><path style="opacity:1" fill="#231c34" d="M 245.5,86.5 C 248.694,86.1756 249.694,87.3422 248.5,90C 249.416,90.3742 250.25,90.8742 251,91.5C 251.711,94.734 252.545,97.9006 253.5,101C 253.167,101.333 252.833,101.667 252.5,102C 254.195,104.224 255.195,106.724 255.5,109.5C 255.551,123.434 255.384,137.434 255,151.5C 252.447,157.781 252.113,164.114 254,170.5C 254.645,169.354 255.478,168.354 256.5,167.5C 258.36,161.394 260.527,155.394 263,149.5C 263.399,149.728 263.565,150.062 263.5,150.5C 262.638,163.292 259.305,175.292 253.5,186.5C 251.19,189.102 249.357,192.102 248,195.5C 245.724,196.762 243.891,198.429 242.5,200.5C 242.421,199.07 242.754,197.736 243.5,196.5C 245.845,194.486 247.845,192.153 249.5,189.5C 248.39,187.504 248.724,185.671 250.5,184C 249.552,183.517 248.552,183.351 247.5,183.5C 246.311,187.217 244.811,190.884 243,194.5C 239.011,196.99 235.844,200.324 233.5,204.5C 233.709,205.086 234.043,205.586 234.5,206C 233.099,207.318 231.265,208.485 229,209.5C 226.619,212.22 224.619,215.22 223,218.5C 220.791,220.78 218.291,222.614 215.5,224C 212.522,227.927 209.355,231.761 206,235.5C 205.586,235.043 205.086,234.709 204.5,234.5C 201.864,235.971 199.364,237.637 197,239.5C 195.374,239.146 193.541,239.146 191.5,239.5C 214.804,226.531 231.804,207.864 242.5,183.5C 245.321,179.233 247.488,174.567 249,169.5C 257.335,141.362 256.168,113.695 245.5,86.5 Z"/></g>
<g><path style="opacity:1" fill="#a69ead" d="M 65.5,165.5 C 77.1667,165.5 88.8333,165.5 100.5,165.5C 101.492,165.328 102.158,165.662 102.5,166.5C 102.5,178.5 102.5,190.5 102.5,202.5C 101.505,190.678 101.172,178.678 101.5,166.5C 89.3217,166.828 77.3217,166.495 65.5,165.5 Z"/></g>
<g><path style="opacity:1" fill="#888391" d="M 200.5,165.5 C 188.345,166.495 176.011,166.829 163.5,166.5C 163.828,178.678 163.495,190.678 162.5,202.5C 162.5,190.167 162.5,177.833 162.5,165.5C 175.167,165.5 187.833,165.5 200.5,165.5 Z"/></g>
<g><path style="opacity:1" fill="#251b32" d="M 33.5,220.5 C 15.603,201.03 4.93634,178.03 1.5,151.5C 1.97403,147.843 3.30737,147.676 5.5,151C 5.22923,154.136 4.8959,157.303 4.5,160.5C 4.88736,165.52 7.05402,169.52 11,172.5C 10.2107,175.857 10.544,179.191 12,182.5C 16.3701,190.235 20.3701,198.235 24,206.5C 25.3946,208.14 26.8946,209.64 28.5,211C 28.1667,211.333 27.8333,211.667 27.5,212C 28.7659,212.309 29.9326,212.809 31,213.5C 31.8471,215.854 32.6805,218.188 33.5,220.5 Z"/></g>
<g><path style="opacity:1" fill="#27193b" d="M 64.5,114.5 C 64.2172,115.289 63.7172,115.956 63,116.5C 62.1739,128.341 62.3405,140.007 63.5,151.5C 63.5,152.167 63.5,152.833 63.5,153.5C 63.3284,154.492 63.6618,155.158 64.5,155.5C 79.9669,157.183 95.6336,157.85 111.5,157.5C 111.333,172.837 111.5,188.17 112,203.5C 114.148,205.572 113.982,207.406 111.5,209C 122.44,209.005 133.44,209.505 144.5,210.5C 144.833,210.167 145.167,209.833 145.5,209.5C 139.5,208.833 133.5,208.167 127.5,207.5C 135.146,206.543 142.812,205.876 150.5,205.5C 152.925,204.286 154.425,202.286 155,199.5C 155.182,196.774 155.682,194.107 156.5,191.5C 156.371,180.285 156.371,169.118 156.5,158C 172.94,156.957 189.273,157.457 205.5,159.5C 205.306,143.58 205.639,127.58 206.5,111.5C 207.5,111.833 208.167,112.5 208.5,113.5C 207.54,114.812 207.706,116.146 209,117.5C 209.247,131.198 208.58,144.865 207,158.5C 206.716,160.886 205.716,161.552 204,160.5C 203.326,161.578 202.326,162.245 201,162.5C 198.294,161.99 195.627,161.323 193,160.5C 191.739,160.759 190.739,161.426 190,162.5C 186,162.5 182,162.5 178,162.5C 176.687,161.427 175.187,160.76 173.5,160.5C 170.034,161.087 167.034,162.421 164.5,164.5C 163.5,164.5 162.5,164.5 161.5,164.5C 161.667,177.837 161.5,191.171 161,204.5C 160.345,206.628 159.511,208.628 158.5,210.5C 155.894,211.593 153.228,212.593 150.5,213.5C 136.841,213.973 123.175,213.473 109.5,212C 107.622,210.457 106.122,208.624 105,206.5C 104.19,195.786 104.357,185.12 105.5,174.5C 104.787,172.224 104.287,169.891 104,167.5C 103.617,166.944 103.117,166.611 102.5,166.5C 102.158,165.662 101.492,165.328 100.5,165.5C 100.586,164.504 100.252,163.671 99.5,163C 97.236,162.764 95.0693,162.264 93,161.5C 86.3333,161.5 79.6667,161.5 73,161.5C 69.6667,162.167 66.3333,162.833 63,163.5C 61.8904,161.963 60.3904,161.297 58.5,161.5C 58.1468,155.151 56.6468,149.151 54,143.5C 53.3333,135.5 53.3333,127.5 54,119.5C 56,116.167 58,112.833 60,109.5C 61.5445,108.179 62.7112,108.512 63.5,110.5C 74.1667,111.167 84.8333,111.833 95.5,112.5C 85.0078,113.167 74.6745,113.833 64.5,114.5 Z"/></g>
<g><path style="opacity:1" fill="#36182f" d="M 64.5,155.5 C 79.5,155.5 94.5,155.5 109.5,155.5C 111.776,155.756 112.943,157.09 113,159.5C 113.169,174.339 113.669,189.006 114.5,203.5C 114.842,204.338 115.508,204.672 116.5,204.5C 127.833,204.5 139.167,204.5 150.5,204.5C 150.5,204.833 150.5,205.167 150.5,205.5C 142.812,205.876 135.146,206.543 127.5,207.5C 133.5,208.167 139.5,208.833 145.5,209.5C 145.167,209.833 144.833,210.167 144.5,210.5C 133.44,209.505 122.44,209.005 111.5,209C 113.982,207.406 114.148,205.572 112,203.5C 111.5,188.17 111.333,172.837 111.5,157.5C 95.6336,157.85 79.9669,157.183 64.5,155.5 Z"/></g>
<g><path style="opacity:1" fill="#ea8e8e" d="M 155.5,116.5 C 170.167,116.5 184.833,116.5 199.5,116.5C 200.117,116.611 200.617,116.944 201,117.5C 201.5,128.828 201.667,140.162 201.5,151.5C 201.443,152.609 201.11,153.609 200.5,154.5C 185.496,154.333 170.496,154.5 155.5,155C 154,155.833 152.833,157 152,158.5C 151.5,173.163 151.333,187.83 151.5,202.5C 151.167,203.167 150.833,203.833 150.5,204.5C 139.167,204.5 127.833,204.5 116.5,204.5C 126.992,203.67 137.659,203.17 148.5,203C 149,202.5 149.5,202 150,201.5C 150.333,186.833 150.667,172.167 151,157.5C 151.833,156 153,154.833 154.5,154C 168.833,153.667 183.167,153.333 197.5,153C 198.428,152.612 199.095,151.945 199.5,151C 200.815,139.958 200.815,128.958 199.5,118C 184.661,117.831 169.994,117.331 155.5,116.5 Z"/></g>
<g><path style="opacity:1" fill="#e48481" d="M 64.5,117.5 C 64.5,128.833 64.5,140.167 64.5,151.5C 80.4788,152.404 96.4788,152.738 112.5,152.5C 112.312,154.103 112.812,155.437 114,156.5C 114.5,172.163 114.667,187.83 114.5,203.5C 113.669,189.006 113.169,174.339 113,159.5C 112.943,157.09 111.776,155.756 109.5,155.5C 94.2648,154.819 78.9314,154.152 63.5,153.5C 63.5,152.833 63.5,152.167 63.5,151.5C 63.1719,139.988 63.5052,128.654 64.5,117.5 Z"/></g>
<g><path style="opacity:1" fill="#4f1e2e" d="M 200.5,154.5 C 185.867,156.321 170.867,157.154 155.5,157C 155,157.5 154.5,158 154,158.5C 153.667,172.5 153.333,186.5 153,200.5C 152.722,201.416 152.222,202.082 151.5,202.5C 151.333,187.83 151.5,173.163 152,158.5C 152.833,157 154,155.833 155.5,155C 170.496,154.5 185.496,154.333 200.5,154.5 Z"/></g>
<g><path style="opacity:1" fill="#6b2932" d="M 63.5,153.5 C 78.9314,154.152 94.2648,154.819 109.5,155.5C 94.5,155.5 79.5,155.5 64.5,155.5C 63.6618,155.158 63.3284,154.492 63.5,153.5 Z"/></g>
<g><path style="opacity:1" fill="#2c0e19" d="M 64.5,114.5 C 79.676,114.171 94.676,114.504 109.5,115.5C 94.8295,115.333 80.1629,115.5 65.5,116C 64.944,116.383 64.6107,116.883 64.5,117.5C 63.5052,128.654 63.1719,139.988 63.5,151.5C 62.3405,140.007 62.1739,128.341 63,116.5C 63.7172,115.956 64.2172,115.289 64.5,114.5 Z"/></g>
<g><path style="opacity:1" fill="#271939" d="M 54.5,239.5 C 46.5721,234.241 39.5721,227.908 33.5,220.5C 32.6805,218.188 31.8471,215.854 31,213.5C 29.9326,212.809 28.7659,212.309 27.5,212C 27.8333,211.667 28.1667,211.333 28.5,211C 26.8946,209.64 25.3946,208.14 24,206.5C 20.3701,198.235 16.3701,190.235 12,182.5C 10.544,179.191 10.2107,175.857 11,172.5C 7.05402,169.52 4.88736,165.52 4.5,160.5C 4.8959,157.303 5.22923,154.136 5.5,151C 3.30737,147.676 1.97403,147.843 1.5,151.5C 0.833333,149.5 0.166667,147.5 -0.5,145.5C -0.5,139.5 -0.5,133.5 -0.5,127.5C 2.82459,122.447 4.32459,116.78 4,110.5C 5.93488,107.448 7.26821,104.115 8,100.5C 8.66667,99.1667 9.33333,99.1667 10,100.5C 10.1342,106.168 9.80089,111.835 9,117.5C 8.9326,120.047 8.09927,122.214 6.5,124C 7.85401,137.314 9.52068,150.648 11.5,164C 13.1045,167.211 14.4378,170.545 15.5,174C 15.1667,174.333 14.8333,174.667 14.5,175C 15.448,175.483 16.448,175.649 17.5,175.5C 17.3568,180.165 18.8568,184.165 22,187.5C 24.1105,195.285 28.2772,201.785 34.5,207C 34.0426,207.414 33.7093,207.914 33.5,208.5C 34.5312,209.7 35.3645,211.034 36,212.5C 36.6667,213.833 37.3333,213.833 38,212.5C 40.4302,215.386 43.0968,218.053 46,220.5C 46.3095,221.766 46.8095,222.933 47.5,224C 50.8805,226.349 54.2138,228.682 57.5,231C 58.8333,231.667 58.8333,232.333 57.5,233C 60.4658,235.739 63.4658,237.739 66.5,239C 64.6096,240.112 62.6096,240.946 60.5,241.5C 58.484,240.822 56.484,240.156 54.5,239.5 Z"/></g>
<g><path style="opacity:1" fill="#1f192a" d="M 253.5,186.5 C 251.618,191.265 249.452,195.932 247,200.5C 223.799,237.034 190.632,258.368 147.5,264.5C 147.389,263.883 147.056,263.383 146.5,263C 149.575,261.38 152.742,259.88 156,258.5C 159.121,259.536 162.287,259.703 165.5,259C 166.716,257.26 168.382,256.26 170.5,256C 174.918,255.792 179.251,255.126 183.5,254C 195.011,249.067 205.345,242.733 214.5,235C 213.327,231.89 213.827,231.723 216,234.5C 221.466,227.701 227.632,221.534 234.5,216C 233.542,214.853 233.875,213.853 235.5,213C 234.549,212.282 234.383,211.449 235,210.5C 236.183,211.731 237.349,211.731 238.5,210.5C 240.551,207.431 241.885,204.097 242.5,200.5C 243.891,198.429 245.724,196.762 248,195.5C 249.357,192.102 251.19,189.102 253.5,186.5 Z"/></g>
<g><path style="opacity:1" fill="#1d152a" d="M 102.5,166.5 C 103.117,166.611 103.617,166.944 104,167.5C 104.287,169.891 104.787,172.224 105.5,174.5C 104.357,185.12 104.19,195.786 105,206.5C 106.122,208.624 107.622,210.457 109.5,212C 123.175,213.473 136.841,213.973 150.5,213.5C 153.228,212.593 155.894,211.593 158.5,210.5C 157.106,212.708 155.106,214.208 152.5,215C 139.167,215.667 125.833,215.667 112.5,215C 106.703,212.713 103.37,208.546 102.5,202.5C 102.5,190.5 102.5,178.5 102.5,166.5 Z"/></g>
<g><path style="opacity:1" fill="#241b33" d="M 44.5,33.5 C 45.404,34.209 45.7373,35.209 45.5,36.5C 44.5,36.5 43.5,36.5 42.5,36.5C 42.5,37.8333 42.5,39.1667 42.5,40.5C 39.6246,41.6839 36.9579,43.3506 34.5,45.5C 31.5677,50.889 27.7343,55.5556 23,59.5C 20.6784,65.1798 17.6784,70.5132 14,75.5C 12.5909,80.326 11.0909,85.1593 9.5,90C 9.75908,91.2613 10.4258,92.2613 11.5,93C 10.4464,94.3876 10.2797,95.8876 11,97.5C 11.3076,96.6919 11.8076,96.0253 12.5,95.5C 13.5272,96.7914 14.5272,96.7914 15.5,95.5C 6.2526,128.423 9.41927,160.09 25,190.5C 53.1933,237.348 94.6933,258.348 149.5,253.5C 149.918,254.222 150.584,254.722 151.5,255C 137.516,256.558 123.516,256.558 109.5,255C 109.833,254.667 110.167,254.333 110.5,254C 105.327,253.56 100.161,253.06 95,252.5C 92.4088,252.565 89.9088,253.065 87.5,254C 91.9787,255.74 96.312,257.74 100.5,260C 107.162,261.232 113.496,262.732 119.5,264.5C 95.2781,262.546 73.6114,254.213 54.5,239.5C 56.484,240.156 58.484,240.822 60.5,241.5C 62.6096,240.946 64.6096,240.112 66.5,239C 63.4658,237.739 60.4658,235.739 57.5,233C 58.8333,232.333 58.8333,231.667 57.5,231C 54.2138,228.682 50.8805,226.349 47.5,224C 46.8095,222.933 46.3095,221.766 46,220.5C 43.0968,218.053 40.4302,215.386 38,212.5C 37.3333,213.833 36.6667,213.833 36,212.5C 35.3645,211.034 34.5312,209.7 33.5,208.5C 33.7093,207.914 34.0426,207.414 34.5,207C 28.2772,201.785 24.1105,195.285 22,187.5C 18.8568,184.165 17.3568,180.165 17.5,175.5C 16.448,175.649 15.448,175.483 14.5,175C 14.8333,174.667 15.1667,174.333 15.5,174C 14.4378,170.545 13.1045,167.211 11.5,164C 9.52068,150.648 7.85401,137.314 6.5,124C 8.09927,122.214 8.9326,120.047 9,117.5C 9.80089,111.835 10.1342,106.168 10,100.5C 9.33333,99.1667 8.66667,99.1667 8,100.5C 7.26821,104.115 5.93488,107.448 4,110.5C 4.32459,116.78 2.82459,122.447 -0.5,127.5C -0.5,124.167 -0.5,120.833 -0.5,117.5C 4.53267,84.0981 19.5327,56.0981 44.5,33.5 Z"/></g>
<g><path style="opacity:1" fill="#27193a" d="M 242.5,200.5 C 241.885,204.097 240.551,207.431 238.5,210.5C 237.349,211.731 236.183,211.731 235,210.5C 234.383,211.449 234.549,212.282 235.5,213C 233.875,213.853 233.542,214.853 234.5,216C 227.632,221.534 221.466,227.701 216,234.5C 213.827,231.723 213.327,231.89 214.5,235C 205.345,242.733 195.011,249.067 183.5,254C 179.251,255.126 174.918,255.792 170.5,256C 168.382,256.26 166.716,257.26 165.5,259C 162.287,259.703 159.121,259.536 156,258.5C 152.742,259.88 149.575,261.38 146.5,263C 147.056,263.383 147.389,263.883 147.5,264.5C 146.833,264.5 146.5,264.833 146.5,265.5C 137.5,265.5 128.5,265.5 119.5,265.5C 119.5,265.167 119.5,264.833 119.5,264.5C 113.496,262.732 107.162,261.232 100.5,260C 96.312,257.74 91.9787,255.74 87.5,254C 89.9088,253.065 92.4088,252.565 95,252.5C 100.161,253.06 105.327,253.56 110.5,254C 110.167,254.333 109.833,254.667 109.5,255C 123.516,256.558 137.516,256.558 151.5,255C 150.584,254.722 149.918,254.222 149.5,253.5C 153.884,252.624 158.217,251.624 162.5,250.5C 172.505,247.83 182.171,244.164 191.5,239.5C 193.541,239.146 195.374,239.146 197,239.5C 199.364,237.637 201.864,235.971 204.5,234.5C 205.086,234.709 205.586,235.043 206,235.5C 209.355,231.761 212.522,227.927 215.5,224C 218.291,222.614 220.791,220.78 223,218.5C 224.619,215.22 226.619,212.22 229,209.5C 231.265,208.485 233.099,207.318 234.5,206C 234.043,205.586 233.709,205.086 233.5,204.5C 235.844,200.324 239.011,196.99 243,194.5C 244.811,190.884 246.311,187.217 247.5,183.5C 248.552,183.351 249.552,183.517 250.5,184C 248.724,185.671 248.39,187.504 249.5,189.5C 247.845,192.153 245.845,194.486 243.5,196.5C 242.754,197.736 242.421,199.07 242.5,200.5 Z"/></g>
</svg>
