<?xml version="1.0" standalone="yes"?>
<svg xmlns="http://www.w3.org/2000/svg" width="512" height="512">
<path style="fill:#020202; stroke:none;" d="M252.019 0.742279C243.066 4.28027 241.371 24.7391 239 33C229.264 66.9253 225.81 99.2888 221.715 134C219.458 153.121 224.661 174.259 220.61 193C217.807 205.964 205.413 216.68 204.105 230C202.276 248.628 204 268.276 204 287L204 402C204 413.951 202.397 427.2 204.325 439C205.603 446.825 210.285 455.074 210.308 463C210.32 467.126 206.959 470.293 205.562 474C202.729 481.521 202.631 493.821 206.403 500.996C209.133 506.19 214.14 510.53 220 511.66C235.887 514.722 254.814 512 271 512C278.575 512 287.853 513.438 295 510.517C308.236 505.107 310.816 487.476 307.211 475C305.998 470.805 302.016 467.322 301.614 463C301.003 456.433 305.388 448.497 306.536 442C308.176 432.72 307 422.407 307 413L307 287C307 268.328 308.987 248.527 307.502 230C306.352 215.668 291.513 204.336 290.105 190C287.501 163.476 292.08 136.534 288.576 110C284.682 80.5166 277.702 52.72 270.116 24C267.889 15.5699 265.309 -4.51001 252.019 0.742279z"/>
<path style="fill:#856111; stroke:none;" d="M255 39L256 42L257 42L255 39z"/>
<path style="fill:#a0a0a0; stroke:none;" d="M255 40L256 41L255 40z"/>
<path style="fill:#fdcd0a; stroke:none;" d="M255 41L247 136L272 136C272 112.563 268.43 88.7762 262.87 66C261.027 58.4478 259.954 47.0454 255 41z"/>
<path style="fill:#856111; stroke:none;" d="M254.333 42.6667L254.667 43.3333L254.333 42.6667M257.333 44.6667L257.667 45.3333L257.333 44.6667M253.333 46.6667L253.667 47.3333L253.333 46.6667M258.333 47.6667L258.667 48.3333L258.333 47.6667z"/>
<path style="fill:#a0a0a0; stroke:none;" d="M258 49L259 50L258 49z"/>
<path style="fill:#856111; stroke:none;" d="M252 50L253 51L252 50z"/>
<path style="fill:#a0a0a0; stroke:none;" d="M252 51L253 52L252 51z"/>
<path style="fill:#856111; stroke:none;" d="M259.333 51.6667L259.667 52.3333L259.333 51.6667M251.333 53.6667L251.667 54.3333L251.333 53.6667z"/>
<path style="fill:#a0a0a0; stroke:none;" d="M251 55L252 56L251 55z"/>
<path style="fill:#856111; stroke:none;" d="M260.333 55.6667L260.667 56.3333L260.333 55.6667M250 57L251 58L250 57z"/>
<path style="fill:#a0a0a0; stroke:none;" d="M260 57L261 58L260 57M250 58L251 59L250 58z"/>
<path style="fill:#ffffff; stroke:none;" d="M250 59L239 136L247 136L249.17 84L250 59z"/>
<path style="fill:#856111; stroke:none;" d="M261.333 59.6667L261.667 60.3333L261.333 59.6667M249 61L250 62L249 61z"/>
<path style="fill:#a0a0a0; stroke:none;" d="M249 62L250 63L249 62z"/>
<path style="fill:#856111; stroke:none;" d="M262.333 63.6667L262.667 64.3333L262.333 63.6667M248 65L249 66L248 65z"/>
<path style="fill:#a0a0a0; stroke:none;" d="M248 66L249 67L248 66z"/>
<path style="fill:#856111; stroke:none;" d="M263.333 67.6667L263.667 68.3333L263.333 67.6667M247.333 68.6667L247.667 69.3333L247.333 68.6667z"/>
<path style="fill:#a0a0a0; stroke:none;" d="M247 70L248 71L247 70z"/>
<path style="fill:#856111; stroke:none;" d="M264 71L264 74L265 74L264 71M246.333 73.6667L246.667 74.3333L246.333 73.6667z"/>
<path style="fill:#a0a0a0; stroke:none;" d="M246 75L247 76L246 75z"/>
<path style="fill:#856111; stroke:none;" d="M265 76L265 79L266 79L265 76M245.333 78.6667L245.667 79.3333L245.333 78.6667z"/>
<path style="fill:#a0a0a0; stroke:none;" d="M245 80L246 81L245 80z"/>
<path style="fill:#856111; stroke:none;" d="M266 81L266 84L267 84L266 81M244.333 83.6667L244.667 84.3333L244.333 83.6667z"/>
<path style="fill:#a0a0a0; stroke:none;" d="M244 85L245 86L244 85z"/>
<path style="fill:#856111; stroke:none;" d="M267 86L267 89L268 89L267 86M243.333 88.6667L243.667 89.3333L243.333 88.6667z"/>
<path style="fill:#a0a0a0; stroke:none;" d="M243 90L244 91L243 90z"/>
<path style="fill:#856111; stroke:none;" d="M268 91L268 95L269 95L268 91M242.333 94.6667L242.667 95.3333L242.333 94.6667z"/>
<path style="fill:#a0a0a0; stroke:none;" d="M242 96L242 99L243 99L242 96z"/>
<path style="fill:#856111; stroke:none;" d="M269 98L269 102L270 102L269 98M241.333 102.667L241.667 103.333L241.333 102.667z"/>
<path style="fill:#a0a0a0; stroke:none;" d="M269 102L270 103L269 102M241.333 104.667L241.667 105.333L241.333 104.667z"/>
<path style="fill:#856111; stroke:none;" d="M270 106L270 110L271 110L270 106M240.333 109.667L240.667 110.333L240.333 109.667z"/>
<path style="fill:#a0a0a0; stroke:none;" d="M240 111L240 114L241 114L240 111z"/>
<path style="fill:#856111; stroke:none;" d="M271 113L271 121L272 121L271 113M239 120L239 124L240 124L239 120z"/>
<path style="fill:#a0a0a0; stroke:none;" d="M239 124L239 129L240 129L239 124z"/>
<path style="fill:#856111; stroke:none;" d="M272 128L272 136L273 136L272 128M239 136L239 137L247 137L239 136M248 136L248 137L264 137L248 136M238 154L238 187L239 187L238 154z"/>
<path style="fill:#ffffff; stroke:none;" d="M239 154L239 187L247 187L247 154L239 154z"/>
<path style="fill:#fdcd0a; stroke:none;" d="M247 154L247 187L272 187L272 154L247 154z"/>
<path style="fill:#856111; stroke:none;" d="M272 154L272 187L247 187L247 188L273 188L272 154z"/>
<path style="fill:#a0a0a0; stroke:none;" d="M239 187L239 188L247 188L239 187z"/>
<path style="fill:#ffffff; stroke:none;" d="M235 205L228 221C235.701 220.402 236.514 211.422 238 205L235 205z"/>
<path style="fill:#fdcd0a; stroke:none;" d="M233 222L284 221L275.61 206.028L248 205L238.702 206.028L233 222z"/>
<path style="fill:#856111; stroke:none;" d="M276 205L277 206L276 205z"/>
<path style="fill:#a0a0a0; stroke:none;" d="M234 206L235 207L234 206z"/>
<path style="fill:#856111; stroke:none;" d="M277 207L278 208L277 207z"/>
<path style="fill:#a0a0a0; stroke:none;" d="M233 208L234 209L233 208z"/>
<path style="fill:#856111; stroke:none;" d="M278 209L279 210L278 209z"/>
<path style="fill:#a0a0a0; stroke:none;" d="M232 210L233 211L232 210z"/>
<path style="fill:#856111; stroke:none;" d="M279 211L280 212L279 211z"/>
<path style="fill:#a0a0a0; stroke:none;" d="M231 212L232 213L231 212z"/>
<path style="fill:#856111; stroke:none;" d="M280 213L281 214L280 213z"/>
<path style="fill:#a0a0a0; stroke:none;" d="M230 214L231 215L230 214z"/>
<path style="fill:#856111; stroke:none;" d="M281 215L282 216L281 215z"/>
<path style="fill:#a0a0a0; stroke:none;" d="M229 216L230 217L229 216z"/>
<path style="fill:#856111; stroke:none;" d="M282 217L283 218L282 217z"/>
<path style="fill:#a0a0a0; stroke:none;" d="M228 218L229 219L228 218z"/>
<path style="fill:#856111; stroke:none;" d="M283 219L284 220L283 219z"/>
<path style="fill:#a0a0a0; stroke:none;" d="M227 220L233 222L233 221L227 220z"/>
<path style="fill:#856111; stroke:none;" d="M278 221L278 222L285 222L278 221M221 239L221 380L221 414L222.603 425.972L241 427L290 427L290 426L222 426L222 295L222 257L221 239z"/>
<path style="fill:#ffffff; stroke:none;" d="M222 239L222 426L230 426L230 239L222 239z"/>
<path style="fill:#fdcd0a; stroke:none;" d="M230 239L230 426L290 426L290 239L230 239z"/>
<path style="fill:#a0a0a0; stroke:none;" d="M224 444L225 445L224 444z"/>
<path style="fill:#ffffff; stroke:none;" d="M225 444C225.865 450.42 226.318 459.402 234 460L232 444L225 444z"/>
<path style="fill:#fdcd0a; stroke:none;" d="M232 444L234 460L283 460L287 444L232 444z"/>
<path style="fill:#856111; stroke:none;" d="M224 445L225 446L224 445M286.333 446.667L286.667 447.333L286.333 446.667z"/>
<path style="fill:#a0a0a0; stroke:none;" d="M225.333 447.667L225.667 448.333L225.333 447.667z"/>
<path style="fill:#856111; stroke:none;" d="M225 449L226 450L225 449M285 449L285 452L286 452L285 449z"/>
<path style="fill:#a0a0a0; stroke:none;" d="M226 451L227 452L226 451z"/>
<path style="fill:#856111; stroke:none;" d="M226 452L227 453L226 452M284.333 453.667L284.667 454.333L284.333 453.667z"/>
<path style="fill:#a0a0a0; stroke:none;" d="M227 455L228 456L227 455z"/>
<path style="fill:#856111; stroke:none;" d="M227 456L228 457L227 456M283.333 457.667L283.667 458.333L283.333 457.667z"/>
<path style="fill:#a0a0a0; stroke:none;" d="M228 459L228 460C242.429 464.265 261.944 461 277 461L277 460L228 459z"/>
<path style="fill:#856111; stroke:none;" d="M228 460L229 461L228 460M277 460L277 461L282 461L277 460M223 478L222 480L223 478z"/>
<path style="fill:#fdcd0a; stroke:none;" d="M224.318 479.028C219.986 481.918 220.954 493.037 226.059 494.566C239.436 498.575 259.018 495 273 495C277.137 495 285.041 496.474 288.258 493.258C291.686 489.83 290.874 479.968 285.891 478.434C272.917 474.438 253.592 478 240 478C235.715 478 228.034 476.548 224.318 479.028z"/>
<path style="fill:#856111; stroke:none;" d="M287 478L288 479L287 478M289 480L290 481L289 480M221 482L221 492L222 492L221 482M289 492L290 493L289 492M222 493L223 494L222 493M224 494L225 495L224 494M287 494L288 495L287 494z"/>
</svg>
